<svg viewBox="0 0 129 14" fill="none" xmlns="http://www.w3.org/2000/svg">
<g id="_ 1" clip-path="url(#clip0_0_4)">
<path id="Vector" d="M10.8573 6.03186H2.44982V0.493578H0.127826V13.72H2.44982V8.07729H10.8573V13.72H13.1816V0.493578H10.8573V6.03186Z" fill="var(--fill-0, #0A0808)"/>
<path id="Vector_2" d="M26.9551 1.11052C25.8166 0.53391 24.4982 0.246789 22.9975 0.246789C21.4968 0.246789 20.1761 0.53391 19.0399 1.11052C17.9014 1.68713 17.0162 2.48918 16.3842 3.51663C15.7498 4.54646 15.435 5.7424 15.435 7.10443C15.435 8.46884 15.7522 9.66477 16.3842 10.6922C17.0185 11.7221 17.9038 12.5241 19.0399 13.0983C20.1761 13.6749 21.4968 13.9621 22.9975 13.9621C24.4982 13.9621 25.8189 13.6749 26.9551 13.0983C28.0936 12.5217 28.9788 11.7197 29.6108 10.6922C30.2452 9.6624 30.56 8.46646 30.56 7.10443C30.56 5.74002 30.2428 4.54409 29.6108 3.51663C28.9765 2.48918 28.0912 1.68713 26.9551 1.11052ZM27.561 9.64579C27.1326 10.3624 26.5314 10.9153 25.7574 11.3044C24.9834 11.6912 24.0626 11.8858 22.9951 11.8858C21.9395 11.8858 21.0211 11.6912 20.2423 11.3044C19.4612 10.9177 18.8577 10.3648 18.4316 9.64579C18.0032 8.92918 17.7902 8.08206 17.7902 7.1068C17.7902 6.13155 18.0032 5.28443 18.4316 4.56782C18.86 3.85121 19.4636 3.29833 20.2423 2.90918C21.0211 2.5224 21.9395 2.32781 22.9951 2.32781C24.0626 2.32781 24.9834 2.5224 25.7574 2.90918C26.5314 3.29596 27.1326 3.84884 27.561 4.56782C27.9895 5.28443 28.2025 6.13155 28.2025 7.1068C28.2025 8.08206 27.9895 8.92918 27.561 9.64579Z" fill="var(--fill-0, #0A0808)"/>
<path id="Vector_3" d="M42.4422 7.92545C43.1404 7.59087 43.6848 7.12579 44.0778 6.53257C44.4707 5.93935 44.6671 5.25358 44.6671 4.47765C44.6671 3.67799 44.4707 2.98274 44.0778 2.38714C43.6848 1.79391 43.1381 1.32883 42.4422 0.994252C41.7439 0.659675 40.9321 0.491203 40.0066 0.491203H32.811V13.7177H35.133V8.42613H37.7864L42.2221 13.7177H45.0009L40.5013 8.40475C41.2232 8.35492 41.8741 8.2007 42.4422 7.92545ZM35.133 2.50339H39.7959C40.5699 2.50339 41.183 2.67663 41.635 3.02307C42.0871 3.36952 42.312 3.85596 42.312 4.47765C42.312 5.08985 42.0871 5.57155 41.635 5.92274C41.183 6.27629 40.5699 6.45189 39.7959 6.45189H35.133V2.50339Z" fill="var(--fill-0, #0A0808)"/>
<path id="Vector_4" d="M49.7751 8.07729H57.6145V6.13627H49.7751L49.2023 2.50339H58.0382V0.493578H46.6199L47.6756 7.1068L46.6199 13.72H58.1257V11.7102H49.2023L49.7751 8.07729Z" fill="var(--fill-0, #0A0808)"/>
<path id="Vector_5" d="M64.3604 2.90918C65.1178 2.5224 66.0101 2.32781 67.0421 2.32781C67.9321 2.32781 68.7179 2.46545 69.3996 2.74307C70.079 3.01833 70.6328 3.40985 71.0612 3.91528C71.4897 4.4207 71.7666 5.02579 71.8968 5.73053H74.2354C74.117 4.63663 73.7407 3.68034 73.1016 2.85695C72.4625 2.03357 71.627 1.3929 70.595 0.934929C69.563 0.476963 68.3842 0.246789 67.0587 0.246789C65.5817 0.246789 64.2846 0.53391 63.1721 1.11052C62.0573 1.68713 61.191 2.48918 60.5685 3.51663C59.9459 4.54646 59.6359 5.7424 59.6359 7.10443C59.6359 8.46884 59.9459 9.66477 60.5685 10.6922C61.191 11.7221 62.0573 12.5241 63.1721 13.0983C64.287 13.6749 65.5817 13.9621 67.0587 13.9621C68.3842 13.9621 69.563 13.7319 70.595 13.2739C71.627 12.816 72.4625 12.1729 73.1016 11.3424C73.7407 10.5142 74.1194 9.55797 74.2354 8.47593H71.8968C71.7666 9.18068 71.4897 9.79051 71.0612 10.3007C70.6328 10.8132 70.079 11.2024 69.3996 11.4729C68.7203 11.7434 67.9345 11.8787 67.0421 11.8787C66.0101 11.8787 65.1154 11.6841 64.3604 11.2973C63.6029 10.9105 63.0206 10.3577 62.6088 9.63867C62.1969 8.92206 61.9934 8.07492 61.9934 7.09966C61.9934 6.12441 62.1993 5.27729 62.6088 4.56068C63.0206 3.85119 63.6053 3.29833 64.3604 2.90918Z" fill="var(--fill-0, #0A0808)"/>
<path id="Vector_6" d="M80.7469 0.493578L74.4153 13.72H76.8958L78.3089 10.6875H86.0892L87.5022 13.72H89.9828L83.6488 0.493578H80.7469ZM79.2036 8.76308L82.1979 2.3373L85.1921 8.76308H79.2036Z" fill="var(--fill-0, #0A0808)"/>
<path id="Vector_7" d="M99.1122 9.45119H102.717C102.679 9.50339 102.646 9.56034 102.604 9.61017C102.211 10.08 101.685 10.4359 101.029 10.678C100.374 10.92 99.6164 11.0386 98.7596 11.0386C97.879 11.0386 97.1145 10.8915 96.4636 10.5973C95.8127 10.3031 95.3109 9.8617 94.9582 9.27559C94.6055 8.68712 94.4304 7.96576 94.4304 7.10678C94.4304 6.25966 94.5937 5.55254 94.9227 4.98068C95.2517 4.41119 95.7133 3.9817 96.3121 3.6922C96.9109 3.40509 97.6187 3.26034 98.44 3.26034C99.1193 3.26034 99.7276 3.34576 100.26 3.51661C100.793 3.68746 101.24 3.93424 101.598 4.25695C101.955 4.57966 102.192 4.96644 102.31 5.41254H105.986C105.799 4.38983 105.382 3.49051 104.736 2.71458C104.09 1.93864 103.24 1.32645 102.185 0.880344C101.129 0.434242 99.8744 0.21119 98.4211 0.21119C97.3299 0.21119 96.3239 0.360685 95.4032 0.659668C94.4824 0.958651 93.6729 1.40238 92.9747 1.99085C92.2764 2.57932 91.7344 3.30305 91.3462 4.15966C90.958 5.01864 90.7663 6.00102 90.7663 7.10441C90.7663 8.21017 90.9556 9.19017 91.3367 10.0492C91.7178 10.9081 92.2504 11.6295 92.9368 12.218C93.6232 12.8064 94.4185 13.2502 95.3203 13.5492C96.2245 13.8481 97.1903 13.9976 98.2223 13.9976C99.3016 13.9976 100.248 13.8386 101.063 13.5207C101.877 13.2027 102.559 12.7614 103.103 12.199C103.193 12.1064 103.257 11.9973 103.34 11.9024L103.517 13.7153H106.102V6.87186H99.1004V9.45119H99.1122Z" fill="var(--fill-0, #FF4F28)"/>
<path id="Vector_8" d="M119.658 1.07492C118.486 0.498312 117.113 0.21119 115.541 0.21119C113.982 0.21119 112.613 0.498312 111.435 1.07492C110.256 1.65153 109.342 2.45593 108.691 3.49051C108.04 4.52509 107.714 5.73051 107.714 7.10678C107.714 8.48305 108.04 9.68848 108.691 10.7207C109.342 11.7553 110.256 12.562 111.435 13.1363C112.613 13.7129 113.982 14 115.541 14C117.113 14 118.486 13.7129 119.658 13.1363C120.829 12.5597 121.745 11.7553 122.401 10.7207C123.057 9.6861 123.386 8.48068 123.386 7.10678C123.386 5.73051 123.057 4.52509 122.401 3.49051C121.745 2.45593 120.832 1.65153 119.658 1.07492ZM119.191 9.04542C118.858 9.58644 118.379 10.0041 117.757 10.2983C117.134 10.5925 116.396 10.7397 115.541 10.7397C114.696 10.7397 113.965 10.5925 113.342 10.2983C112.72 10.0041 112.239 9.58644 111.901 9.04542C111.56 8.50441 111.392 7.85898 111.392 7.10678C111.392 6.35458 111.563 5.70678 111.901 5.16576C112.242 4.62475 112.722 4.20712 113.342 3.91288C113.963 3.61864 114.696 3.47153 115.541 3.47153C116.398 3.47153 117.137 3.61864 117.757 3.91288C118.379 4.20712 118.858 4.62475 119.191 5.16576C119.525 5.70678 119.693 6.3522 119.693 7.10678C119.693 7.85898 119.527 8.50678 119.191 9.04542Z" fill="var(--fill-0, #FF4F28)"/>
<path id="Vector_9" d="M128.155 9.04545L128.751 0.493578H125.007L125.603 9.04545H128.155Z" fill="var(--fill-0, #FF4F28)"/>
<path id="Vector_10" d="M128.33 10.6875C127.966 10.3458 127.485 10.1749 126.889 10.1749C126.29 10.1749 125.807 10.3458 125.438 10.6875C125.068 11.0292 124.884 11.48 124.884 12.0447C124.884 12.5976 125.068 13.0437 125.438 13.3854C125.807 13.7271 126.29 13.8956 126.889 13.8956C127.488 13.8956 127.968 13.7247 128.33 13.3854C128.695 13.0437 128.875 12.5976 128.875 12.0447C128.875 11.48 128.695 11.0268 128.33 10.6875Z" fill="var(--fill-0, #FF4F28)"/>
</g>
<defs>
<clipPath id="clip0_0_4">
<rect width="129" height="14" fill="white"/>
</clipPath>
</defs>
</svg>
