<svg viewBox="0 0 129.011 12.5325" fill="none" xmlns="http://www.w3.org/2000/svg">
<g id="Sheverev">
<path d="M0 12.5216L1.15004 7.9851H6.31438L5.837 9.87802L10.0249 9.86714L10.448 8.23531L12.6288 8.21355L1.73591 5.68965L3.17889 0H15.5147L17.2832 1.71886L16.6213 4.30804H11.4462L11.8693 2.64357H5.50067L7.54036 3.16575L7.32337 4.03606L16.1548 6.05953L15.059 10.4437L12.6613 12.5216H0Z" fill="var(--fill-0, #262626)"/>
<path d="M29.2067 0H34.3819L31.1704 12.5216H25.9953L27.1345 8.09389L28.5666 7.5717H22.99L21.7206 12.5216H16.5454L19.7568 0H24.932L23.8471 4.23188L22.122 4.92813H27.9482L29.2067 0Z" fill="var(--fill-0, #262626)"/>
<path d="M36.2805 0H50.873L50.1787 2.64357H40.7722L40.1863 4.92813H47.629L46.9347 7.5717H39.5137L39.1014 9.18177L37.3763 9.87802H48.3668L47.6724 12.5216H35.0654L33.5031 10.8354L36.2805 0Z" fill="var(--fill-0, #262626)"/>
<path d="M50.8622 12.5216L49.3107 10.8354L52.1099 0H57.2851L54.8982 9.18177L53.2382 9.87802L56.3737 9.86714L60.7569 0H65.9972L60.4314 12.5216H50.8622Z" fill="var(--fill-0, #262626)"/>
<path d="M67.2014 0H81.7939L81.0996 2.64357H71.6931L71.1072 4.92813H78.55L77.8556 7.5717H70.4346L70.0223 9.18177L68.2972 9.87802H79.2877L78.5934 12.5216H65.9863L64.424 10.8354L67.2014 0Z" fill="var(--fill-0, #262626)"/>
<path d="M95.3666 0L97.135 1.67535L95.8982 6.46205L94.2708 6.7993L95.7463 12.5325H90.5711L89.3668 7.80016L86.0469 8.48553L85.0271 12.5216H79.8519L83.0308 0H95.3666ZM93.3703 2.65445L87.5333 2.64357L86.9149 5.06956L84.6473 6.11393L91.1679 4.78671L91.5801 3.19839L93.3703 2.65445Z" fill="var(--fill-0, #262626)"/>
<path d="M99.2941 0H113.887L113.192 2.64357H103.786L103.2 4.92813H110.643L109.948 7.5717H102.527L102.115 9.18177L100.39 9.87802H111.38L110.686 12.5216H98.079L96.5166 10.8354L99.2941 0Z" fill="var(--fill-0, #262626)"/>
<path d="M113.876 12.5216L112.324 10.8354L115.123 0H120.299L117.912 9.18177L116.252 9.87802L119.387 9.86714L123.77 0H129.011L123.445 12.5216H113.876Z" fill="var(--fill-0, #262626)"/>
</g>
</svg>
