<svg viewBox="0 5 421 3" fill="none" xmlns="http://www.w3.org/2000/svg">
<path id="Vector 2" d="M1 5.48478C3.70476 5.48478 8.71233 5.2605 18.7309 4.92068C27.8455 4.61152 45.1619 4.80514 54.5298 4.91728C64.8018 5.04025 68.4215 5.48478 73.0714 5.59692C76.165 5.67153 88.3223 6.16443 105.689 6.27657C113.395 6.32633 125.119 6.8441 141.576 6.95624C149.272 7.00868 160.554 7.52375 175.876 7.29946C187.025 7.13627 193.345 5.94014 208.197 5.60032C222.147 5.28114 249.13 5.48478 263.703 5.37264C281.922 5.23244 285.988 3.90797 296.736 2.31757C318.689 -0.931029 324.359 2.76615 328.917 3.4424C331.417 3.81335 343.585 4.12546 360.611 4.23761C370.963 4.30579 388.061 5.48478 399.316 6.72516C403.295 7.16367 407.26 9.54914 412.938 12.2712C414.311 12.9542 415.435 13.6271 416.576 13.9737C417.718 14.3203 418.842 14.3203 420 15" stroke="var(--stroke-0, white)" stroke-width="2" stroke-linecap="round"/>
</svg>
