<svg viewBox="0 0 166 32" fill="none" xmlns="http://www.w3.org/2000/svg">
<g id="Frame" clip-path="url(#clip0_0_41)">
<path id="Vector" d="M16.664 0C7.81 0 0.651 7.152 0.651 16C0.651 24.848 7.81 32 16.664 32C25.518 32 32.677 24.848 32.677 16C32.677 7.152 25.446 0 16.664 0ZM14.377 22.783L13.197 26.249C8.769 24.774 5.817 20.571 5.817 15.853C5.817 11.133 8.769 7.005 13.27 5.456L14.45 8.922C11.499 9.88 9.58 12.682 9.58 15.779C9.506 19.023 11.425 21.825 14.377 22.783ZM19.911 26.323L18.804 22.857C21.83 21.899 23.822 19.097 23.822 15.927C23.822 12.757 21.83 10.027 18.878 9.069L20.058 5.529C22.2481 6.24793 24.1552 7.64029 25.5071 9.50738C26.859 11.3745 27.5866 13.6209 27.586 15.926C27.512 20.719 24.413 24.922 19.911 26.323ZM163.217 18.802L164.988 20.94C163.143 22.857 160.855 23.373 159.01 23.373C157.239 23.373 155.985 23.079 154.878 22.563C152.517 21.383 151.336 19.023 151.336 16.148C151.336 11.798 154.288 8.553 158.641 8.553C163.512 8.553 165.873 12.166 165.504 16.885H154.435C154.509 18.065 155.173 19.171 156.133 19.761C156.944 20.277 157.904 20.498 159.158 20.498C160.56 20.572 161.962 20.055 163.217 18.802ZM154.583 14.378H162.405C162.184 12.682 160.781 11.208 158.568 11.208C156.206 11.208 154.804 12.83 154.583 14.378ZM80.2 23.005H84.185L77.912 15.705L84.111 8.848H80.201L75.477 14.304H74.075V8.848H71.05V22.931H74.075V17.327H75.477L80.2 23.005ZM93.261 11.429C90.679 11.429 88.981 13.419 88.981 15.927C88.981 18.433 90.679 20.424 93.261 20.424C95.843 20.424 97.468 18.507 97.468 15.927C97.468 13.493 95.918 11.429 93.261 11.429ZM93.778 8.553C97.763 8.553 100.714 11.65 100.714 15.927C100.714 20.129 97.837 23.374 93.778 23.374C91.859 23.374 90.31 22.71 89.203 21.53V28.904H86.103V8.922H89.129V10.618C90.309 9.217 91.785 8.553 93.778 8.553ZM133.921 8.922H121.302V11.724H126.099V23.004H129.198V11.724H133.995V8.922H133.921ZM68.91 8.922H56.29V11.724H61.087V23.004H64.112V11.724H68.909L68.91 8.922ZM52.528 16C52.528 13.346 50.683 11.429 48.1 11.429C45.591 11.429 43.673 13.346 43.673 16C43.673 18.654 45.518 20.572 48.1 20.572C50.61 20.572 52.528 18.655 52.528 16ZM40.574 16C40.574 11.797 43.82 8.627 48.174 8.627C52.528 8.627 55.774 11.797 55.774 16C55.774 20.203 52.528 23.447 48.174 23.447C43.82 23.447 40.574 20.203 40.574 16ZM148.9 8.922V23.005H145.874V13.935L138.495 23.005H136.06V8.922H139.085V17.991L146.465 8.921L148.9 8.922ZM119.235 23.005H116.21V8.922H119.235V23.005ZM111.339 18.212C111.339 16.959 110.454 16.074 109.273 16.074H106.174V20.424H109.273C110.454 20.424 111.339 19.466 111.339 18.212ZM114.439 18.212C114.439 21.014 112.373 23.005 109.421 23.005H103.222V8.922H106.248V13.493H109.716C112.594 13.493 114.439 15.336 114.439 18.212Z" fill="var(--fill-0, #A3A3A3)"/>
</g>
<defs>
<clipPath id="clip0_0_41">
<rect width="166" height="32" fill="white"/>
</clipPath>
</defs>
</svg>
