<svg viewBox="0 0 144 48" fill="none" xmlns="http://www.w3.org/2000/svg">
<g id="Frame" clip-path="url(#clip0_0_55)">
<path id="Vector" d="M97.4751 46.2653C97.8578 44.9347 97.2598 43.2713 95.8963 42.9861L95.2505 45.0297H92.0452L92.093 44.9109L95.6811 32.7208L91.1362 32.697L87.1415 46.2653H97.4751ZM71.0432 46.2653L74.2724 35.2871H69.9668L68.2445 41.1802C67.8139 42.6059 67.2399 44.5782 64.513 44.5782C63.4126 44.5782 62.8146 44.103 62.6472 43.3901C62.4558 42.9149 62.6711 42.0356 62.8385 41.5129L64.6804 35.2634H60.3747L58.5329 41.5366C58.198 42.6535 57.6239 44.0792 58.3176 45.0535C58.9874 46.0277 60.5183 46.4554 62.097 46.4554C64.2738 46.4554 65.5894 45.7188 67.3834 44.602L66.905 46.2653H71.0432ZM75.9947 43.3901C75.6598 43.5564 75.014 44.1505 74.6312 44.697C74.4399 44.9822 74.2724 45.2436 74.105 45.5525C75.2053 46.1941 76.6166 46.4792 78.1475 46.4792C81.9269 46.4792 84.6299 44.9584 85.2518 42.8673C86.4957 38.6614 78.7934 39.7545 79.4631 37.5683C79.7262 36.6416 81.0179 36.2614 82.1661 36.2614C83.5774 36.2614 84.606 37.1881 84.5821 38.1624C85.0844 38.0198 85.8259 37.5208 86.2804 36.9267L86.8066 36.1663C85.7781 35.4535 84.1276 35.097 82.5728 35.097C79.7262 35.097 76.808 36.3802 76.1143 38.6851C74.9661 42.6297 82.4292 41.798 81.8073 43.9366C81.5681 44.7208 80.085 45.3148 78.9847 45.3148C77.3103 45.3148 76.21 44.5307 75.9947 43.3901ZM106.397 29.9881C105.058 29.9881 103.694 30.8198 103.431 31.7703C103.144 32.7208 104.005 33.5525 105.345 33.5525C106.684 33.5525 108.096 32.7446 108.383 31.7703C108.646 30.8198 107.737 29.9881 106.397 29.9881ZM102.977 35.2871L99.7475 46.2653H104.053L107.282 35.2871H102.977ZM111.253 35.2871L108.024 46.2653H112.353L113.884 41.0614C114.291 39.6356 115.08 36.998 117.783 36.998C119.984 36.998 119.912 38.5426 119.29 40.6337L117.64 46.2653H121.969L123.907 39.6356C124.696 36.9267 124.242 35.097 120.319 35.097C118.381 35.097 116.492 35.905 114.937 36.9743L115.439 35.2871H111.253ZM47.3143 34.2653C55.3037 33.0535 52.9116 40.7762 48.7256 40.7762H45.5203L47.3143 34.2653ZM49.7063 32.9584L43.3674 32.9822C43.1282 33.4812 42.004 37.2356 41.9322 37.5208L39.3249 46.2891H43.8698L45.2093 41.703H47.5535L50.2086 46.2891H54.0359L51.3329 41.6079H51.5003C58.8199 41.2752 58.9395 32.9347 49.7063 32.9584ZM131.609 39.2317C132.423 37.3545 133.738 36.8079 135.054 36.7604C138.355 36.6416 137.302 39.8733 134.169 39.8733H131.37L131.609 39.2317ZM131.035 40.8H132.853C134.599 40.7287 141.297 41.0851 140.292 37.3545C139.934 36 138.092 35.0733 135.245 35.097C130.7 35.097 127.423 37.3545 126.49 40.5386C125.39 44.2218 127.399 46.503 132.59 46.503C134.121 46.503 135.939 46.1228 137.374 45.4812L138.403 44.2218L138.092 44.0079C136.967 44.602 135.437 45.0297 134.145 45.0297C130.868 45.0059 130.27 43.1287 131.035 40.8ZM13.3714 10.1941H23.1787C24.9728 10.2653 29.3262 10.1703 31.5508 11.7861C26.5993 2.82772 20.4518 4.08713 11.9123 3.58812C5.16678 3.58812 1.45914 1.37822 0.310963 0.712871C-0.430565 0.712871 4.28173 10.1941 13.3714 10.1941ZM45.6877 2.56634C43.6066 2.35248 44.9701 -0.0712871 46.9794 0.546535C48.5103 0.99802 48.8691 2.89901 47.8645 3.75446C46.4771 4.94257 45.1136 4.96634 43.3914 4.96634C45.305 4.27723 46.3096 3.51683 46.0704 2.61386C45.8073 1.59208 45.8791 2.51881 45.6877 2.56634ZM56.6671 6.15446C56.5714 10.2653 53.0312 11.4535 50.4957 11.5485C49.8259 10.1465 48.9648 8.86337 47.9123 7.72277C50.4718 8.05545 54.9688 7.31881 56.6671 6.15446ZM48.9409 6.4396C48.4625 5.89307 47.6013 4.87129 46.7402 5.25149C45.7595 5.65545 44.7787 5.67921 43.6545 5.60792C44.0611 5.89307 45.8791 6.96238 48.9409 6.4396ZM26.2884 25.6158C29.4937 19.4139 15.8352 19.0099 16.505 26.2337C17.414 36.3327 34.5409 33.6713 36.311 20.6495C33.5841 27.8257 27.9628 28.4673 25.7143 27.0653C24.901 26.6376 24.901 25.7109 25.2598 25.4733C25.5229 25.2594 26.1449 25.2594 26.2884 25.6158Z" fill="var(--fill-0, #A3A3A3)"/>
<path id="Vector_2" d="M1.57874 25.4495C4.23389 19.9129 8.77874 19.1287 12.1515 20.602C13.3714 21.2673 13.7302 22.2178 13.3714 23.1446C12.5103 20.9347 9.25714 21.8139 8.6113 25.1168C5.6691 39.9921 36.7415 42.9386 37.9375 20.2455C38.2963 21.695 38.4877 23.1921 38.4877 24.7366C38.4877 35.501 29.398 44.2218 18.2033 44.2218C16.6246 44.2218 15.0698 44.0554 13.5867 43.7228C13.1801 43.604 12.7495 43.4851 12.3429 43.3426C2.08106 39.7782 -1.05249 30.9861 1.57874 25.4495Z" fill="var(--fill-0, #A3A3A3)"/>
<path id="Vector_3" d="M37.8419 8.22178C38.2724 8.19802 38.6551 8.53069 38.6791 8.95842C38.703 9.38614 38.3681 9.76634 37.9375 9.7901C37.507 9.81386 37.1243 9.48119 37.1003 9.05346C37.0525 8.62574 37.3874 8.24554 37.8419 8.22178ZM34.8518 13.5208L37.3395 12.3564C36.6698 12.2376 35.8086 12.0238 35.3542 11.4772C35.0432 12.2614 34.9236 12.8792 34.8518 13.5208ZM35.4498 11.002C37.9615 12.8317 40.9276 11.3822 42.3628 10.3366C43.1043 10.5743 41.9083 11.4059 41.5256 11.5248C41.6691 11.596 41.7887 11.6436 41.9322 11.7149C42.0518 11.7861 42.1475 11.8337 42.2432 11.905C43.3674 12.6416 44.109 13.901 44.109 15.3267C44.109 17.5842 42.2671 19.4139 39.9947 19.4139C39.7555 19.4139 39.5163 19.3901 39.2771 19.3426L39.301 19.4851C40.6884 23.6673 40.7123 28.3485 39.2292 32.5069C52.5289 27.3743 53.39 11.7861 42.6498 5.3703C42.4824 5.27525 42.3149 5.20396 42.1475 5.10891L42.291 5.03762C46.0226 3.20792 43.1761 -1.37822 38.2724 0.451485C40.0425 1.11683 39.8512 2.94653 36.8611 5.22772C35.1867 6.8198 34.0864 8.29307 35.4498 11.002ZM37.7223 35.4772C37.1482 37.7584 36.0957 39.8495 34.6365 41.6554C31.4791 45.4337 26.6711 47.8574 21.2412 47.905C17.9402 47.8812 14.8545 46.9545 12.2711 45.3386C12.4864 45.4099 12.6777 45.5049 12.893 45.5525C13.3236 45.695 13.7542 45.8376 14.1847 45.9564C15.7156 46.3129 17.3183 46.4792 18.9688 46.4792C27.1495 46.4554 34.2299 41.9881 37.7223 35.4772Z" fill="var(--fill-0, #A3A3A3)"/>
<path id="Vector_4" d="M18.2272 17.0614H31.0246C32.4359 17.1089 35.4738 17.204 37.2199 18.4871C35.2585 14.4475 31.4073 12 24.4704 12.2614L14.2804 12.1663C12.5103 12.1663 10.0704 11.8099 8.63522 11.2396C9.90299 13.402 13.1801 17.0614 18.2272 17.0614ZM56.0213 10.7406C56.1648 13.4495 55.495 16.7287 51.9548 17.4178C51.8831 15.8495 51.5721 14.2574 50.998 12.7842C52.6724 12.7129 54.7056 12.1663 56.0213 10.7406ZM55.2797 17.0139C54.7296 19.9604 53.39 22.7168 50.998 23.3109C51.5721 21.7901 51.9309 20.2455 52.0027 18.6297C53.4379 18.3446 54.5143 17.7743 55.2797 17.0139ZM56.691 29.0851L56.6432 27.7782H54.5382L53.7249 29.0851H52.2179L56.1169 23.2158H57.6957L58.0545 29.0851H56.691ZM56.5714 24.7842V24.6416C56.5714 24.5941 56.5714 24.5465 56.5953 24.499C56.5953 24.4515 56.5953 24.404 56.6193 24.3564C56.6193 24.3089 56.6193 24.2851 56.6432 24.2614H56.6193C56.6193 24.2851 56.5953 24.3089 56.5714 24.3564C56.5475 24.404 56.5236 24.4277 56.5236 24.4752L56.4518 24.6178L56.3801 24.7604L55.1362 26.7564H56.6432L56.5714 24.7842ZM62.0731 29.0851H60.6139L60.3987 24.903H61.6904L61.6664 27.2317V27.6594C61.6664 27.7307 61.6664 27.8257 61.6425 27.897C61.6425 27.9683 61.6186 28.0396 61.6186 28.1109H61.6425C61.6664 28.0634 61.6904 27.9921 61.7382 27.9208C61.7621 27.8495 61.81 27.7782 61.8578 27.7069C61.9056 27.6356 61.9296 27.5644 61.9774 27.4931C62.0252 27.4218 62.0492 27.3505 62.097 27.2792L63.4126 24.9505H64.8478L62.0731 29.0851ZM67.5269 29.0376C67.4791 29.0614 67.4073 29.0614 67.3595 29.0851C67.2877 29.1089 67.2159 29.1089 67.1442 29.1327C67.0724 29.1564 67.0007 29.1564 66.905 29.1564H66.6658C66.4744 29.1564 66.3309 29.1327 66.2113 29.0851C66.0917 29.0376 65.9721 28.9663 65.9003 28.895C65.8286 28.8 65.7807 28.705 65.7329 28.5861C65.709 28.4673 65.685 28.3485 65.709 28.2059C65.709 28.1347 65.7329 28.0871 65.7329 28.0158C65.7568 27.9446 65.7568 27.8733 65.7807 27.7782C65.8046 27.7069 65.8286 27.6119 65.8525 27.5406C65.8764 27.4455 65.9003 27.3743 65.9242 27.303C65.9482 27.2554 65.9721 27.1604 65.996 27.0416C66.0438 26.9228 66.0678 26.7802 66.1156 26.6139L66.2591 26.1149C66.307 25.9248 66.3548 25.7584 66.4027 25.6158C66.4505 25.4495 66.4983 25.3069 66.5223 25.1881C66.5701 25.0693 66.594 24.9743 66.594 24.9267H67.9096L67.2159 27.2792C67.192 27.3743 67.1442 27.4931 67.1203 27.5881C67.0963 27.7069 67.0724 27.802 67.0485 27.897C67.0485 27.9921 67.0724 28.0634 67.1203 28.1109C67.192 28.1584 67.2638 28.1822 67.3355 28.1822C67.4073 28.1822 67.4791 28.1822 67.5508 28.1584C67.6226 28.1347 67.6943 28.1347 67.7661 28.0871C67.7183 28.2535 67.6704 28.4198 67.6226 28.5624C67.6226 28.7287 67.5747 28.895 67.5269 29.0376ZM68.412 23.5485C68.412 23.6436 68.3641 23.7386 68.3163 23.8337C68.2684 23.9287 68.1967 24 68.1249 24.0475C68.0531 24.1188 67.9575 24.1663 67.8618 24.1901C67.7661 24.2139 67.6704 24.2376 67.5508 24.2376C67.4551 24.2376 67.3595 24.2139 67.2638 24.1901C67.1681 24.1663 67.0963 24.1188 67.0485 24.0713C67.0007 24.0238 66.9528 23.9525 66.905 23.8812C66.8571 23.8099 66.8571 23.7149 66.8811 23.6436C66.8811 23.5485 66.9289 23.4535 66.9767 23.3584C67.0246 23.2634 67.0724 23.1921 67.1681 23.1446C67.2638 23.097 67.3355 23.0257 67.4312 23.002C67.5269 22.9782 67.6465 22.9545 67.7422 22.9545C67.8379 22.9545 67.9335 22.9782 68.0292 23.002C68.1249 23.0257 68.1967 23.0733 68.2445 23.1208C68.3163 23.1683 68.3402 23.2396 68.388 23.3109C68.412 23.3822 68.4359 23.4535 68.412 23.5485ZM73.6505 27.7069C73.6266 27.802 73.6027 27.897 73.5787 28.0158C73.5548 28.1347 73.5309 28.2535 73.507 28.396C73.483 28.5149 73.4591 28.6574 73.4352 28.7762C73.4113 28.895 73.4113 29.0139 73.3874 29.0851H72.0717C72.0717 29.0376 72.0718 28.9901 72.0957 28.9188C72.0957 28.8475 72.1196 28.8 72.1196 28.7287C72.1196 28.6574 72.1435 28.5861 72.1435 28.5386C72.1435 28.4673 72.1674 28.4198 72.1674 28.3723H72.1435C72.0478 28.4673 71.9522 28.5861 71.8804 28.6812C71.8086 28.7762 71.689 28.8713 71.5694 28.9426C71.4498 29.0139 71.3302 29.0851 71.2106 29.1327C71.0671 29.1802 70.9236 29.204 70.7561 29.204C70.5409 29.204 70.3734 29.1564 70.206 29.0851C70.0625 29.0139 69.9189 28.895 69.8232 28.7762C69.7276 28.6337 69.6558 28.4673 69.608 28.2772C69.5601 28.0871 69.5601 27.8495 69.584 27.5881C69.584 27.4693 69.6319 27.303 69.6558 27.1129C69.7036 26.9228 69.7754 26.7327 69.8711 26.5188C69.9668 26.3049 70.0864 26.1149 70.2299 25.901C70.3734 25.6871 70.5648 25.5208 70.804 25.3545C71.0193 25.1881 71.2824 25.0693 71.5933 24.9505C71.9043 24.8554 72.2631 24.8079 72.6458 24.8079C72.8133 24.8079 72.9568 24.8079 73.1242 24.8317C73.2917 24.8554 73.4352 24.8554 73.5787 24.8792L74.0093 24.9505C74.1528 24.9743 74.2724 24.998 74.392 25.0218L73.6505 27.7069ZM72.7176 25.7109H72.5023C72.311 25.7109 72.1435 25.7347 72 25.8059C71.8565 25.8772 71.7129 25.9485 71.6173 26.0436C71.4977 26.1386 71.402 26.2574 71.3302 26.3762C71.2585 26.4951 71.1867 26.6376 71.1149 26.7564C71.0671 26.899 71.0193 27.0178 70.9953 27.1366C70.9714 27.2554 70.9475 27.3743 70.9475 27.4693V27.7545C70.9714 27.8495 70.9953 27.9208 71.0193 27.9683C71.0671 28.0396 71.1149 28.0871 71.1628 28.1109C71.2345 28.1347 71.3063 28.1584 71.3781 28.1584C71.5455 28.1584 71.689 28.1109 71.8086 28.0158C71.9282 27.9208 72.0478 27.802 72.1674 27.6594C72.2631 27.5168 72.3588 27.3505 72.4306 27.1842C72.5023 27.0178 72.5741 26.8277 72.6219 26.6614L72.9329 25.6871C72.8611 25.7347 72.7894 25.7109 72.7176 25.7109ZM78.9369 25.8535H77.9561L77.4777 27.4218C77.4777 27.4455 77.4538 27.4931 77.4538 27.5406C77.4538 27.5881 77.4299 27.6119 77.4299 27.6594C77.4299 27.7069 77.406 27.7307 77.406 27.7782C77.406 27.8257 77.3821 27.8495 77.3821 27.8733C77.3821 27.9921 77.382 28.0634 77.4538 28.1109C77.5016 28.1584 77.5973 28.1822 77.7169 28.1822C77.7409 28.1822 77.7887 28.1822 77.8365 28.1584C77.8844 28.1584 77.9322 28.1347 78.004 28.1347C78.0518 28.1109 78.0997 28.1109 78.1714 28.0871C78.2193 28.0634 78.2671 28.0634 78.291 28.0396L78.004 28.9901C77.9561 29.0139 77.8844 29.0376 77.8126 29.0376C77.7409 29.0614 77.6691 29.0851 77.5734 29.0851C77.4777 29.1089 77.406 29.1089 77.3103 29.1327C77.2146 29.1327 77.1189 29.1564 77.0472 29.1564C76.8319 29.1564 76.6644 29.1327 76.5209 29.0851C76.3774 29.0376 76.2817 28.9663 76.21 28.8713C76.1382 28.7762 76.0904 28.6574 76.0664 28.5386C76.0425 28.4198 76.0425 28.2772 76.0425 28.1347C76.0425 28.0871 76.0425 28.0396 76.0664 27.9921C76.0664 27.9446 76.0904 27.8733 76.1143 27.8257C76.1382 27.7545 76.1382 27.7069 76.1621 27.6356C76.186 27.5644 76.186 27.5168 76.21 27.4693L76.6884 25.8535H76.0425L76.3535 24.903H76.9754L77.2624 23.9287L78.6737 23.596L78.291 24.903H79.2957L78.9369 25.8535ZM82.0704 29.0376C82.0226 29.0614 81.9508 29.0614 81.903 29.0851C81.8312 29.1089 81.7595 29.1089 81.6877 29.1327C81.6159 29.1564 81.5442 29.1564 81.4485 29.1564H81.2093C81.0179 29.1564 80.8744 29.1327 80.7548 29.0851C80.6352 29.0376 80.5156 28.9663 80.4438 28.895C80.3721 28.8 80.3242 28.705 80.2764 28.5861C80.2525 28.4673 80.2286 28.3485 80.2525 28.2059C80.2525 28.1347 80.2764 28.0871 80.2764 28.0158C80.3003 27.9446 80.3003 27.8733 80.3242 27.7782C80.3482 27.7069 80.3721 27.6119 80.3721 27.5406C80.396 27.4455 80.4199 27.3743 80.4438 27.303C80.4678 27.2554 80.4917 27.1604 80.5156 27.0416C80.5634 26.9228 80.5874 26.7802 80.6352 26.6139L80.7787 26.1149C80.8266 25.9248 80.8744 25.7584 80.9222 25.6158C80.9701 25.4495 81.0179 25.3069 81.0418 25.1881C81.0897 25.0693 81.1136 24.9743 81.1136 24.9267H82.4292L81.7355 27.2792C81.7116 27.3743 81.6638 27.4931 81.6399 27.5881C81.592 27.7069 81.592 27.802 81.5681 27.897C81.5681 27.9921 81.592 28.0634 81.6399 28.1109C81.7116 28.1584 81.7834 28.1822 81.8551 28.1822C81.9269 28.1822 81.9987 28.1822 82.0704 28.1584C82.1422 28.1347 82.2139 28.1347 82.2857 28.0871C82.2379 28.2535 82.19 28.4198 82.1422 28.5624C82.1661 28.7287 82.1183 28.895 82.0704 29.0376ZM82.9555 23.5485C82.9555 23.6436 82.9076 23.7386 82.8598 23.8337C82.8119 23.9287 82.7402 24 82.6684 24.0475C82.5967 24.1188 82.501 24.1663 82.4053 24.1901C82.3096 24.2139 82.2139 24.2376 82.0943 24.2376C81.9987 24.2376 81.903 24.2139 81.8073 24.1901C81.7116 24.1663 81.6399 24.1188 81.592 24.0713C81.5442 24.0238 81.4963 23.9525 81.4485 23.8812C81.4007 23.8099 81.4007 23.7149 81.4246 23.6436C81.4246 23.5485 81.4724 23.4535 81.5203 23.3584C81.5681 23.2634 81.6159 23.1921 81.7116 23.1446C81.8073 23.097 81.8791 23.0257 81.9747 23.002C82.0704 22.9782 82.19 22.9545 82.2857 22.9545C82.3814 22.9545 82.4771 22.9782 82.5728 23.002C82.6684 23.0257 82.7402 23.0733 82.788 23.1208C82.8359 23.1683 82.8837 23.2396 82.9316 23.3109C82.9555 23.3822 82.9555 23.4535 82.9555 23.5485ZM88.5767 26.5663C88.5528 26.7564 88.5289 26.9703 88.4571 27.1604C88.4093 27.3743 88.3136 27.5644 88.2179 27.7545C88.1222 27.9446 88.0026 28.1347 87.8591 28.301C87.7156 28.4673 87.5482 28.6337 87.3568 28.7525C87.1654 28.8713 86.9502 28.9901 86.687 29.0614C86.4478 29.1327 86.1608 29.1802 85.8498 29.1802C85.5389 29.1802 85.2757 29.1327 85.0365 29.0376C84.8213 28.9426 84.6299 28.8238 84.4864 28.6574C84.3429 28.4911 84.2472 28.301 84.1993 28.0871C84.1515 27.8733 84.1276 27.6356 84.1515 27.398C84.1754 27.2079 84.1993 26.9941 84.2711 26.7802C84.3189 26.5663 84.4146 26.3762 84.5103 26.1861C84.606 25.996 84.7495 25.8059 84.893 25.6396C85.0365 25.4733 85.2279 25.3307 85.4193 25.1881C85.6106 25.0693 85.8259 24.9505 86.089 24.8792C86.3282 24.8079 86.6153 24.7604 86.9023 24.7604C87.1894 24.7604 87.4525 24.8079 87.6678 24.8792C87.883 24.9505 88.0744 25.0693 88.2179 25.2356C88.3614 25.3782 88.4571 25.5683 88.5289 25.7822C88.5767 26.0436 88.6007 26.2812 88.5767 26.5663ZM87.2611 26.5663C87.2611 26.4475 87.2611 26.3525 87.2372 26.2574C87.2133 26.1624 87.1894 26.0673 87.1415 26.0198C87.0937 25.9485 87.0219 25.901 86.9502 25.8535C86.8784 25.8059 86.7827 25.7822 86.687 25.7822C86.5196 25.7822 86.3521 25.8297 86.2086 25.9248C86.0651 26.0198 85.9455 26.1386 85.8259 26.305C85.7302 26.4713 85.6345 26.6376 85.5628 26.8277C85.491 27.0178 85.4671 27.2079 85.4432 27.398C85.4193 27.6356 85.4671 27.8495 85.5628 27.9683C85.6585 28.1109 85.802 28.1822 85.9933 28.1822C86.1608 28.1822 86.3282 28.1347 86.4718 28.0396C86.6153 27.9446 86.7349 27.8257 86.8545 27.6594C86.9502 27.5168 87.0458 27.3267 87.1176 27.1366C87.2133 26.9703 87.2372 26.7802 87.2611 26.5663ZM94.8678 25.901C94.8678 25.9485 94.8438 25.996 94.8438 26.0673C94.8199 26.1386 94.8199 26.2099 94.796 26.2812C94.7721 26.3525 94.7482 26.4238 94.7482 26.4951C94.7242 26.5663 94.7003 26.6139 94.7003 26.6614L93.9827 29.0851H92.6671L93.3608 26.7089C93.3847 26.6139 93.4086 26.5426 93.4325 26.4475C93.4565 26.3525 93.4804 26.2812 93.4804 26.2337C93.4804 26.0911 93.4565 25.996 93.4086 25.9248C93.3369 25.8535 93.2412 25.8059 93.1216 25.8059C93.002 25.8059 92.8824 25.8297 92.7628 25.901C92.6432 25.9723 92.5236 26.0673 92.404 26.1861C92.2844 26.305 92.1887 26.4238 92.093 26.5901C91.9973 26.7327 91.9256 26.899 91.8777 27.0416L91.2797 29.1089H89.9641L90.8252 26.2337C90.8731 26.1149 90.897 25.9723 90.9209 25.8535C90.9688 25.7347 90.9927 25.6158 91.0166 25.497C91.0405 25.3782 91.0644 25.2832 91.0884 25.1644C91.1123 25.0693 91.1362 24.9743 91.1362 24.903H92.4279C92.404 24.9743 92.404 25.0693 92.3801 25.1406C92.3561 25.2119 92.3561 25.3069 92.3322 25.3782C92.3083 25.4495 92.3083 25.5208 92.2844 25.5921C92.2605 25.6396 92.2605 25.6871 92.2605 25.7109H92.2844C92.3801 25.5921 92.4997 25.4733 92.6432 25.3545C92.7628 25.2356 92.9063 25.1406 93.0498 25.0693C93.1933 24.998 93.3369 24.9267 93.4804 24.8792C93.6239 24.8317 93.7674 24.8079 93.911 24.8079C94.2698 24.8079 94.509 24.903 94.6764 25.0931C94.8199 25.2832 94.8917 25.5446 94.8678 25.901ZM104.221 24.6416C104.149 24.5941 104.053 24.5465 103.957 24.499C103.862 24.4515 103.766 24.4277 103.646 24.3802C103.527 24.3564 103.407 24.3089 103.288 24.2851C103.168 24.2614 103.025 24.2614 102.857 24.2614C102.498 24.2614 102.187 24.3327 101.9 24.4515C101.613 24.5703 101.374 24.7366 101.159 24.9505C100.944 25.1644 100.8 25.402 100.68 25.6634C100.561 25.9248 100.489 26.2099 100.465 26.5188C100.441 26.7564 100.465 26.9941 100.513 27.1842C100.561 27.3743 100.656 27.5406 100.8 27.6594C100.92 27.7782 101.087 27.897 101.278 27.9446C101.47 28.0158 101.685 28.0396 101.924 28.0396C102.068 28.0396 102.211 28.0396 102.355 28.0158C102.498 27.9921 102.618 27.9683 102.738 27.9446C102.857 27.9208 102.977 27.8733 103.072 27.8257C103.192 27.7782 103.288 27.7307 103.383 27.6832L103.001 28.9188C102.785 29.0139 102.57 29.0614 102.307 29.1089C102.068 29.1564 101.781 29.1802 101.47 29.1802C101.063 29.1802 100.704 29.1089 100.369 28.9901C100.058 28.8713 99.7953 28.705 99.5801 28.4673C99.3648 28.2535 99.2213 27.9683 99.1256 27.6594C99.0299 27.3505 99.006 26.9941 99.0299 26.6139C99.0538 26.305 99.1017 25.996 99.1973 25.7109C99.293 25.4257 99.4126 25.1406 99.5561 24.8792C99.6997 24.6178 99.891 24.3802 100.106 24.1663C100.322 23.9525 100.585 23.7624 100.872 23.596C101.159 23.4297 101.47 23.3109 101.829 23.2158C102.187 23.1208 102.57 23.0733 102.977 23.0733C103.144 23.0733 103.288 23.0733 103.431 23.097C103.575 23.1208 103.718 23.1446 103.838 23.1683C103.981 23.1921 104.101 23.2158 104.197 23.2634C104.316 23.2871 104.412 23.3347 104.484 23.3584L104.221 24.6416ZM109.746 26.5663C109.722 26.7564 109.698 26.9703 109.627 27.1604C109.579 27.3743 109.483 27.5644 109.387 27.7545C109.292 27.9446 109.172 28.1347 109.029 28.301C108.885 28.4673 108.718 28.6337 108.526 28.7525C108.335 28.8713 108.12 28.9901 107.856 29.0614C107.617 29.1327 107.33 29.1802 107.019 29.1802C106.708 29.1802 106.445 29.1327 106.206 29.0376C105.991 28.9426 105.799 28.8238 105.656 28.6574C105.512 28.4911 105.417 28.301 105.369 28.0871C105.321 27.8733 105.297 27.6356 105.321 27.398C105.345 27.2079 105.369 26.9941 105.441 26.7802C105.488 26.5663 105.584 26.3762 105.68 26.1861C105.775 25.996 105.919 25.8059 106.062 25.6396C106.206 25.4733 106.397 25.3307 106.589 25.1881C106.78 25.0693 106.995 24.9505 107.258 24.8792C107.498 24.8079 107.785 24.7604 108.072 24.7604C108.359 24.7604 108.622 24.8079 108.837 24.8792C109.052 24.9505 109.244 25.0693 109.387 25.2356C109.531 25.3782 109.627 25.5683 109.698 25.7822C109.746 26.0436 109.77 26.2812 109.746 26.5663ZM108.431 26.5663C108.431 26.4475 108.431 26.3525 108.407 26.2574C108.383 26.1624 108.359 26.0673 108.311 26.0198C108.263 25.9485 108.191 25.901 108.12 25.8535C108.048 25.8059 107.952 25.7822 107.856 25.7822C107.689 25.7822 107.522 25.8297 107.378 25.9248C107.235 26.0198 107.115 26.1386 106.995 26.305C106.9 26.4713 106.804 26.6376 106.732 26.8277C106.66 27.0178 106.637 27.2079 106.613 27.398C106.589 27.6356 106.637 27.8495 106.732 27.9683C106.828 28.1109 106.971 28.1822 107.163 28.1822C107.33 28.1822 107.498 28.1347 107.641 28.0396C107.785 27.9446 107.904 27.8257 108.024 27.6594C108.12 27.5168 108.215 27.3267 108.287 27.1366C108.383 26.9703 108.431 26.7802 108.431 26.5663ZM118.668 25.901C118.668 25.9485 118.645 25.996 118.645 26.0673C118.621 26.1386 118.621 26.2099 118.597 26.2812C118.573 26.3525 118.549 26.4238 118.549 26.4951C118.525 26.5663 118.501 26.6139 118.501 26.6614L117.783 29.0851H116.468L117.185 26.7089C117.209 26.6139 117.233 26.5426 117.257 26.4475C117.281 26.3525 117.305 26.2812 117.305 26.2337C117.305 26.0911 117.281 25.996 117.233 25.9248C117.185 25.8535 117.066 25.8059 116.946 25.8059C116.85 25.8059 116.731 25.8535 116.611 25.901C116.492 25.9723 116.372 26.0673 116.252 26.1861C116.133 26.305 116.037 26.4238 115.942 26.5663C115.846 26.7089 115.774 26.8752 115.726 27.0178L115.128 29.0851H113.813L114.53 26.7089C114.554 26.6139 114.578 26.5426 114.602 26.4475C114.626 26.3525 114.65 26.2812 114.65 26.2337C114.65 26.0911 114.626 25.996 114.578 25.9248C114.506 25.8535 114.411 25.8059 114.291 25.8059C114.195 25.8059 114.076 25.8535 113.932 25.901C113.813 25.9723 113.693 26.0673 113.573 26.1861C113.454 26.305 113.358 26.4238 113.262 26.5901C113.167 26.7327 113.095 26.8752 113.047 27.0416L112.425 29.1089H111.11L111.971 26.2337C112.019 26.1149 112.043 25.9723 112.066 25.8535C112.114 25.7347 112.138 25.6158 112.162 25.497C112.186 25.3782 112.21 25.2832 112.234 25.1644C112.258 25.0693 112.282 24.9743 112.282 24.903H113.573C113.549 24.9743 113.549 25.0693 113.526 25.1406C113.502 25.2119 113.502 25.3069 113.478 25.3782C113.454 25.4495 113.454 25.5208 113.43 25.5921C113.406 25.6396 113.406 25.6871 113.406 25.7109H113.43C113.549 25.5921 113.669 25.4495 113.789 25.3545C113.908 25.2356 114.052 25.1406 114.195 25.0693C114.339 24.998 114.482 24.9267 114.626 24.8792C114.769 24.8317 114.913 24.8079 115.056 24.8079C115.391 24.8079 115.631 24.903 115.774 25.0693C115.918 25.2356 116.013 25.4733 116.013 25.7822C116.133 25.6396 116.252 25.5208 116.396 25.402C116.54 25.2832 116.659 25.1881 116.827 25.0931C116.97 24.998 117.114 24.9505 117.281 24.903C117.425 24.8554 117.592 24.8317 117.736 24.8317C118.094 24.8317 118.334 24.9267 118.501 25.1168C118.621 25.2832 118.692 25.5446 118.668 25.901ZM124.912 26.3525C124.888 26.5901 124.84 26.804 124.792 27.0416C124.72 27.2792 124.625 27.4931 124.505 27.7069C124.385 27.9208 124.242 28.1109 124.098 28.301C123.931 28.4911 123.74 28.6337 123.548 28.7762C123.333 28.9188 123.118 29.0139 122.854 29.0851C122.591 29.1564 122.328 29.204 122.017 29.204C121.898 29.204 121.778 29.204 121.658 29.1802C121.539 29.1564 121.419 29.1327 121.324 29.1089L120.749 31.0099H119.434L120.845 26.2812C120.869 26.1861 120.893 26.0911 120.917 25.9723C120.941 25.8535 120.989 25.7109 121.013 25.5921C121.037 25.4733 121.06 25.3307 121.108 25.2119C121.132 25.0931 121.156 24.998 121.156 24.903H122.424C122.424 24.9505 122.4 24.998 122.4 25.0693C122.4 25.1406 122.376 25.1881 122.352 25.2594C122.328 25.3307 122.328 25.402 122.304 25.4495C122.28 25.5208 122.28 25.5683 122.28 25.6158H122.304C122.4 25.497 122.496 25.402 122.591 25.3069C122.687 25.2119 122.807 25.1168 122.926 25.0455C123.046 24.9743 123.189 24.903 123.333 24.8792C123.476 24.8317 123.62 24.8079 123.787 24.8079C123.979 24.8079 124.146 24.8317 124.29 24.903C124.433 24.9743 124.553 25.0693 124.672 25.2119C124.768 25.3545 124.84 25.497 124.888 25.6871C124.912 25.8772 124.936 26.0911 124.912 26.3525ZM123.596 26.4951V26.2337C123.596 26.1386 123.572 26.0673 123.524 25.996C123.476 25.9248 123.429 25.8772 123.357 25.8297C123.285 25.7822 123.213 25.7822 123.094 25.7822C122.95 25.7822 122.807 25.8297 122.663 25.9248C122.544 26.0198 122.424 26.1386 122.304 26.2574C122.209 26.4 122.113 26.5663 122.017 26.7327C121.946 26.899 121.874 27.0891 121.826 27.2554L121.539 28.2059C121.563 28.2059 121.611 28.2297 121.658 28.2297C121.706 28.2297 121.754 28.2535 121.802 28.2535C121.85 28.2535 121.898 28.2772 121.945 28.2772H122.065C122.256 28.2772 122.448 28.2297 122.639 28.1347C122.807 28.0396 122.974 27.897 123.094 27.7307C123.237 27.5644 123.333 27.3743 123.429 27.1604C123.524 26.9465 123.572 26.7327 123.596 26.4951ZM130.461 27.7069C130.437 27.802 130.413 27.897 130.389 28.0158C130.365 28.1347 130.342 28.2535 130.318 28.396C130.294 28.5149 130.27 28.6574 130.246 28.7762C130.222 28.895 130.222 29.0139 130.198 29.0851H128.882C128.882 29.0376 128.882 28.9901 128.906 28.9188C128.906 28.8475 128.93 28.8 128.93 28.7287C128.93 28.6574 128.954 28.5861 128.954 28.5386C128.978 28.4673 128.978 28.4198 128.978 28.3723H128.954C128.858 28.4673 128.787 28.5861 128.691 28.6812C128.595 28.7762 128.5 28.8713 128.38 28.9426C128.26 29.0139 128.141 29.0851 128.021 29.1327C127.878 29.1802 127.734 29.204 127.567 29.204C127.351 29.204 127.184 29.1564 127.017 29.0851C126.849 29.0139 126.73 28.895 126.634 28.7762C126.538 28.6337 126.466 28.4673 126.419 28.2772C126.371 28.0871 126.371 27.8495 126.395 27.5881C126.395 27.4693 126.443 27.303 126.466 27.1129C126.514 26.9228 126.586 26.7327 126.682 26.5188C126.777 26.3049 126.897 26.1149 127.041 25.901C127.184 25.6871 127.375 25.5208 127.615 25.3545C127.83 25.1881 128.093 25.0693 128.404 24.9505C128.715 24.8554 129.074 24.8079 129.456 24.8079C129.624 24.8079 129.767 24.8079 129.935 24.8317C130.102 24.8554 130.246 24.8554 130.389 24.8792L130.82 24.9505C130.963 24.9743 131.083 24.998 131.203 25.0218L130.461 27.7069ZM129.528 25.7109H129.313C129.122 25.7109 128.954 25.7347 128.811 25.8059C128.667 25.8772 128.524 25.9485 128.428 26.0436C128.308 26.1386 128.213 26.2574 128.141 26.3762C128.069 26.4951 127.997 26.6376 127.926 26.7564C127.878 26.899 127.83 27.0178 127.806 27.1366C127.782 27.2554 127.758 27.3743 127.758 27.4693V27.7545C127.782 27.8495 127.806 27.9208 127.83 27.9683C127.878 28.0396 127.926 28.0871 127.973 28.1109C128.045 28.1347 128.117 28.1584 128.189 28.1584C128.356 28.1584 128.5 28.1109 128.619 28.0158C128.739 27.9208 128.858 27.802 128.978 27.6594C129.074 27.5168 129.169 27.3505 129.241 27.1842C129.313 27.0178 129.385 26.8277 129.433 26.6614L129.72 25.6871C129.672 25.7347 129.6 25.7109 129.528 25.7109ZM137.278 25.901C137.278 25.9485 137.254 25.996 137.254 26.0673C137.231 26.1386 137.231 26.2099 137.207 26.2812C137.183 26.3525 137.159 26.4238 137.159 26.4951C137.135 26.5663 137.111 26.6139 137.111 26.6614L136.393 29.0851H135.078L135.771 26.7089C135.795 26.6139 135.819 26.5426 135.843 26.4475C135.867 26.3525 135.891 26.2812 135.891 26.2337C135.891 26.0911 135.867 25.996 135.819 25.9248C135.747 25.8535 135.652 25.8059 135.532 25.8059C135.413 25.8059 135.293 25.8297 135.173 25.901C135.054 25.9723 134.934 26.0673 134.815 26.1861C134.695 26.305 134.599 26.4238 134.504 26.5901C134.408 26.7327 134.336 26.899 134.288 27.0416L133.69 29.1089H132.375L133.236 26.2337C133.284 26.1149 133.308 25.9723 133.332 25.8535C133.379 25.7347 133.403 25.6158 133.427 25.497C133.451 25.3782 133.475 25.2832 133.499 25.1644C133.523 25.0455 133.547 24.9743 133.547 24.903H134.839C134.815 24.9743 134.815 25.0693 134.791 25.1406C134.767 25.2119 134.767 25.3069 134.743 25.3782C134.719 25.4495 134.719 25.5208 134.695 25.5921C134.671 25.6396 134.671 25.6871 134.671 25.7109H134.695C134.791 25.5921 134.91 25.4733 135.054 25.3545C135.173 25.2356 135.317 25.1406 135.46 25.0693C135.604 24.998 135.747 24.9267 135.891 24.8792C136.035 24.8317 136.178 24.8079 136.322 24.8079C136.68 24.8079 136.92 24.903 137.087 25.0931C137.231 25.2832 137.302 25.5446 137.278 25.901ZM140.699 29.4416C140.532 29.6792 140.364 29.8931 140.197 30.1069C140.029 30.297 139.862 30.4634 139.67 30.6059C139.479 30.7485 139.288 30.8436 139.072 30.9386C138.857 31.0099 138.618 31.0574 138.331 31.0574C138.235 31.0574 138.116 31.0574 137.996 31.0337C137.876 31.0099 137.757 30.9861 137.637 30.9386L137.948 29.9406C137.996 29.9881 138.068 30.0119 138.163 30.0356C138.235 30.0594 138.331 30.0594 138.427 30.0594C138.594 30.0594 138.738 30.0119 138.881 29.9406C139.025 29.8693 139.168 29.7505 139.288 29.5842L139.67 29.0614L139.192 24.903H140.555L140.627 27.4455V27.7545C140.627 27.8495 140.603 27.9446 140.603 28.0158H140.627C140.651 27.9446 140.699 27.8733 140.747 27.7545C140.795 27.6594 140.843 27.5406 140.914 27.4455L142.421 24.903H143.785L140.699 29.4416Z" fill="var(--fill-0, #A3A3A3)"/>
</g>
<defs>
<clipPath id="clip0_0_55">
<rect width="144" height="48" fill="white"/>
</clipPath>
</defs>
</svg>
