<svg viewBox="0 0 198 28" fill="none" xmlns="http://www.w3.org/2000/svg">
<g id="Frame" clip-path="url(#clip0_0_23)">
<path id="Vector" d="M-0.028 6.727H2.293V8.842C3.273 7.139 5.131 6.727 6.575 6.727H7.916V9.1H6.781C4.821 9.1 2.448 9.873 2.448 11.679V21.377H-0.028V6.727ZM11.424 14.464C11.63 17.766 13.384 19.519 15.912 19.519C18.232 19.519 19.471 18.229 19.832 16.889L22.153 17.301C21.431 20.087 19.213 21.686 15.808 21.686C11.578 21.686 8.948 18.797 8.948 14.052C8.948 9.307 11.94 6.417 15.86 6.417C19.78 6.417 22.256 8.997 22.256 13.484V14.516L11.424 14.464ZM11.475 12.453H19.78C19.677 10.183 18.44 8.533 15.86 8.533C13.539 8.533 11.94 10.08 11.475 12.453ZM35.977 19.52C35.049 20.964 33.398 21.686 31.232 21.686C27.208 21.686 24.372 18.901 24.372 14C24.372 9.099 27.312 6.366 31.49 6.366C33.295 6.366 34.894 7.036 35.926 8.223V0.433H38.402V21.377H36.029L35.977 19.52ZM35.874 13.33C35.874 10.183 33.914 8.635 31.386 8.635C28.601 8.635 26.796 10.699 26.796 14.052C26.796 17.198 28.446 19.52 31.335 19.52C34.224 19.52 35.823 17.405 35.823 14.67L35.874 13.33ZM40.053 27.36V24.936H54.29V27.36H40.053ZM55.94 6.727H58.313V8.635C59.293 7.191 61.099 6.417 62.853 6.417C65.328 6.417 67.031 7.5 67.753 9.1C68.681 7.346 70.796 6.417 72.757 6.417C76.057 6.417 78.173 8.223 78.173 11.679V21.376H75.697V12.04C75.697 10.028 74.717 8.635 72.292 8.635C70.022 8.635 68.269 10.183 68.269 12.607V21.377H65.793V12.04C65.793 10.028 64.761 8.635 62.337 8.635C60.067 8.635 58.365 10.183 58.365 12.607V21.377H55.889L55.94 6.727ZM90.604 19.674C89.676 20.861 88.077 21.738 85.962 21.738C82.764 21.738 80.752 20.087 80.752 17.353C80.752 14.309 82.918 13.071 86.323 12.968C87.819 12.917 89.109 12.968 90.45 13.02V11.73C90.45 9.564 89.109 8.635 87.2 8.635C85.085 8.635 84.105 9.822 83.64 11.266L81.32 10.75C81.938 8.171 83.95 6.417 87.252 6.417C90.552 6.417 92.977 7.965 92.977 11.576V21.376H90.656L90.604 19.674ZM86.426 14.877C84.311 14.98 83.228 15.805 83.228 17.301C83.228 18.797 84.311 19.623 86.013 19.623C88.49 19.623 90.398 18.281 90.398 16.321V14.877C89.0745 14.8254 87.7495 14.8254 86.426 14.877ZM107.524 19.52C106.595 20.964 104.945 21.686 102.778 21.686C98.755 21.686 95.918 18.901 95.918 14C95.918 9.099 98.858 6.366 103.036 6.366C104.841 6.366 106.441 7.036 107.421 8.223V0.433H109.897V21.377H107.524V19.52ZM107.421 13.33C107.421 10.183 105.46 8.635 102.933 8.635C100.147 8.635 98.342 10.699 98.342 14.052C98.342 17.198 99.992 19.52 102.933 19.52C105.873 19.52 107.421 17.405 107.421 14.67V13.33ZM111.599 27.36V24.936H125.784V27.36H111.599ZM127.487 6.572H129.963V9.048H132.439V11.524H129.963V21.377H127.487V6.572ZM132.439 6.572H136.153V9.048H132.439V6.572ZM138.01 9.048H140.486V18.901H138.01V9.048ZM149.1 9.048H140.486V6.572H149.1V9.048ZM140.486 18.901H149.1V21.377H140.486V18.901ZM149.1 18.901V9.048H151.576V18.901H149.1ZM155.135 0.434H157.611V9.048H160.087V11.524H157.611V16.476H160.087V18.952H157.611V21.428H155.135V0.434ZM160.087 6.572H166.277V9.048H160.087V6.572ZM160.087 18.901H166.277V21.377H160.087V18.901ZM166.226 18.901V9.048H168.702V18.901H166.226ZM171.848 9.048H174.324V18.901H171.848V9.048ZM182.939 9.048H174.324V6.572H182.939V9.048ZM174.324 18.901H182.939V21.377H174.324V18.901ZM182.939 18.901V9.048H185.415V18.901H182.939ZM189.954 9.048H187.478V6.572H189.954V2.858H192.43V6.572H197.382V9.048H192.43V18.9H189.954V9.048ZM192.378 18.9H197.33V21.376H192.378V18.9Z" fill="var(--fill-0, #A3A3A3)"/>
</g>
<defs>
<clipPath id="clip0_0_23">
<rect width="198" height="28" fill="white"/>
</clipPath>
</defs>
</svg>
