<svg viewBox="0 0 181 38" fill="none" xmlns="http://www.w3.org/2000/svg">
<g id="Frame" clip-path="url(#clip0_0_4)">
<path id="Vector" d="M123.347 19.066V12.646H119.496V25.316H123.07L127.242 18.948V25.315H131.093V12.646H127.52L123.347 19.066ZM101.134 17.768C101.134 18.228 100.905 19.118 99.724 19.118H98.36V15.765H99.896C100.305 15.765 101.134 16.1 101.134 17.089V17.768ZM100.308 12.646H94.296V25.316H98.36V22.206H100.308C102.936 22.206 105.09 20.753 105.09 18.166V16.683C105.09 14.099 102.936 12.646 100.308 12.646ZM157.887 19.35C157.887 21.278 157.382 21.558 156.655 21.892C156.339 22.04 155.479 22.008 155.479 22.008V25.315H157.073C160.494 25.315 161.758 23.317 161.809 18.849C161.822 17.837 161.802 16.841 161.809 15.95H164.089V25.315H168.155V12.646H157.887V19.35ZM88.833 21.053C88.833 21.892 88.15 22.579 87.313 22.579H86.966C86.5623 22.5769 86.1758 22.4153 85.8907 22.1295C85.6056 21.8436 85.445 21.4567 85.444 21.053V16.945C85.444 16.105 86.129 15.421 86.966 15.421H87.314C88.15 15.421 88.834 16.105 88.834 16.945L88.833 21.053ZM88.135 12.44H86.145C83.514 12.44 81.36 14.32 81.36 17.233V20.768C81.36 23.698 83.514 25.565 86.145 25.565H88.135C90.761 25.565 92.918 23.681 92.918 20.768V17.233C92.918 14.163 90.761 12.44 88.135 12.44ZM144.482 12.646H140.081L137.936 17.432H136.937V12.646H132.869V25.316H136.937V20.81H137.933L140.127 25.314H144.792L141.345 18.924L144.482 12.646ZM149.518 20.504H154.099V17.491H149.518V15.951H154.514V12.646H145.457V25.316H154.891V22.008H149.518V20.504ZM175.299 22.194H173.768V19.43H175.132C176.282 19.43 176.542 20.275 176.542 20.824C176.542 21.962 175.607 22.194 175.299 22.194ZM175.714 16.342H173.768V12.647H169.702V25.317H175.714C178.344 25.317 180.497 23.859 180.497 21.276V20.382C180.497 17.796 178.344 16.342 175.714 16.342ZM113.652 17.334H110.184V12.647H106.119V25.317H110.184V20.81H113.652V25.314H117.717V12.646H113.652V17.334ZM75.916 17.334H72.449V12.647H68.384V25.317H72.449V20.81H75.916V25.314H79.984V12.646H75.916V17.334ZM48.589 29.55C46.7985 31.3566 44.5725 32.6712 42.126 33.367V4.634C44.5719 5.3281 46.7978 6.64061 48.589 8.445C49.975 9.8303 51.0733 11.4761 51.8207 13.2875C52.5681 15.099 52.9499 17.0404 52.944 19C52.944 22.989 51.397 26.736 48.589 29.552M19.106 20.272V4.918L38.056 17.735V33.086L19.106 20.272ZM15.042 33.368C12.5945 32.6743 10.3678 31.3598 8.578 29.552C7.19062 28.1685 6.09095 26.5239 5.34246 24.7131C4.59396 22.9024 4.21145 20.9613 4.217 19.002C4.217 15.016 5.767 11.266 8.578 8.447C10.3695 6.64247 12.5957 5.32995 15.042 4.636V33.368ZM38.055 0V12.816L19.106 0.001C8.638 0.001 0.151 8.508 0.151 19.001C0.151 29.497 8.638 38 19.106 38V25.184L38.056 38C48.526 38 57.013 29.497 57.013 18.999C57.013 8.508 48.526 0 38.055 0Z" fill="var(--fill-0, #A3A3A3)"/>
</g>
<defs>
<clipPath id="clip0_0_4">
<rect width="181" height="38" fill="white"/>
</clipPath>
</defs>
</svg>
