<svg viewBox="0 0 96 28" fill="none" xmlns="http://www.w3.org/2000/svg">
<g id="Frame" clip-path="url(#clip0_0_20)">
<path id="Vector" d="M91.527 24.3811C93.4104 24.3811 94.7444 24.0377 95.7384 23.2981V19.9434C94.7183 20.6566 93.4888 21.1057 91.7624 21.1057C88.8589 21.1057 87.6556 18.834 87.6556 15.2415C87.6556 11.4642 89.1204 9.53585 91.7886 9.53585C93.358 9.53585 94.9014 10.0906 95.7123 10.6189V7.13208C94.849 6.6566 93.358 6.31321 91.3177 6.31321C86.1123 6.31321 83.418 10.0906 83.418 15.3736C83.4441 21.1585 86.0861 24.3811 91.527 24.3811ZM66.0752 22.8491V19.4943C64.8196 20.366 62.6747 21.1321 60.7128 21.1321C57.7308 21.1321 56.606 19.7057 56.4229 16.8H66.2583V14.634C66.2583 8.58491 63.6163 6.31321 59.5619 6.31321C54.5918 6.31321 52.2376 10.1434 52.2376 15.4C52.2376 21.4491 55.1935 24.3811 60.3728 24.3811C62.9624 24.3811 64.8719 23.6679 66.0752 22.8491ZM28.7477 6.63019V13.4981H23.3068V6.63019H19.2262V24.0377H23.3068V16.7736H28.7477V24.0377H32.8283V6.63019H28.7477ZM51.2174 20.7623H49.4125V6.63019H37.5368V8.10943C37.5368 12.3623 37.2752 17.8566 35.8365 20.7623H34.5286V28H38.2954V24.0377H47.4245V28H51.1913V20.7623H51.2174ZM79.0757 24.0377H83.7057L77.1662 14.6604L82.921 6.63019H78.8142L73.0594 14.6604V6.63019H68.9787V24.0377H73.0594V15.4792L79.0757 24.0377ZM59.4572 9.53585C61.4714 9.53585 62.0992 11.2264 62.0992 13.4189V13.7623H56.4229C56.5275 10.9887 57.5215 9.53585 59.4572 9.53585ZM45.3319 20.7623H39.5771C40.7019 18.1472 41.0158 13.3925 41.0158 10.3811V9.85283H45.3319V20.7623Z" fill="var(--fill-0, #A3A3A3)"/>
<path id="Vector_2" d="M15.8256 24.0377H11.6665V3.24906H9.80926C6.40872 3.24906 4.62997 4.96604 4.62997 7.5283C4.62997 10.434 5.8594 11.7811 8.39673 13.4981L10.4894 14.9245L4.47302 24.0377H0L5.41471 15.9019C2.30191 13.6566 0.549319 11.4642 0.549319 7.76604C0.549319 3.1434 3.7406 0 9.78311 0H15.7995V24.0377H15.8256Z" fill="var(--fill-0, #A3A3A3)"/>
</g>
<defs>
<clipPath id="clip0_0_20">
<rect width="96" height="28" fill="white"/>
</clipPath>
</defs>
</svg>
