<svg viewBox="0 0 94 36" fill="none" xmlns="http://www.w3.org/2000/svg">
<g id="Frame" clip-path="url(#clip0_0_8)">
<path id="Vector" d="M18.1246 0.0335C8.3098 0.0335 0.324275 8.0785 0.324275 17.9665C0.324275 27.8545 8.3093 35.899 18.1246 35.899C27.9399 35.899 35.9249 27.854 35.9249 17.9665C35.9249 8.079 27.9399 0.0335 18.1246 0.0335Z" fill="var(--fill-0, #A3A3A3)"/>
<path id="Vector_2" d="M35.6006 17.9665C35.6006 27.6905 27.7763 35.5725 18.1251 35.5725C8.47393 35.5725 0.64855 27.6905 0.64855 17.9665C0.64855 8.243 8.47343 0.3605 18.1251 0.3605C27.7763 0.36 35.6006 8.2425 35.6006 17.9665Z" fill="var(--fill-0, white)"/>
<path id="Vector_3" d="M18.1251 1.2035C8.93696 1.2035 1.48858 8.7075 1.48858 17.9645C1.4833 21.5707 2.63826 25.0819 4.78107 27.974C10.348 26.3185 15.2011 23.435 19.3675 19.276C23.5209 15.1295 26.4463 10.23 28.1179 4.624C25.6645 2.467 21.6857 1.2035 18.1251 1.2035Z" fill="var(--fill-0, #A3A3A3)"/>
<path id="Vector_4" d="M32.609 12.3825C32.4768 16.3875 30.8017 19.658 27.827 21.839C24.9871 23.9205 21.5305 24.814 18.51 25.497C14.1482 26.4835 9.36021 27.5345 5.40226 28.762C8.45353 32.4095 13.0202 34.7265 18.1246 34.7265C27.3122 34.7265 34.7606 27.2215 34.7606 17.9655C34.7606 14.689 33.7132 11.494 32.1003 8.913C32.435 10.026 32.6488 11.183 32.609 12.383" fill="var(--fill-0, #A3A3A3)"/>
<path id="Vector_5" d="M74.3829 11.932C72.7142 11.932 71.2709 12.4545 70.1295 13.4805C68.8498 14.6305 68.2316 16.2155 68.2316 18.291V26.562H69.933V21.224C70.4567 21.817 71.1113 22.277 71.8638 22.6085C72.6819 22.969 73.5324 23.1345 74.4485 23.1345C76.1833 23.1345 77.6395 22.591 78.866 21.487C80.0935 20.382 80.6983 19.082 80.6983 17.533C80.6983 15.9515 80.1243 14.616 78.8988 13.546C77.6704 12.474 76.1833 11.932 74.3829 11.932ZM71.0456 14.7325C71.9214 13.8675 73.0092 13.4145 74.3829 13.4145C75.6924 13.4145 76.7716 13.8105 77.6549 14.6005C78.5392 15.3915 78.964 16.3795 78.964 17.567C78.964 18.687 78.5875 19.6255 77.8181 20.4C76.984 21.24 75.8555 21.6525 74.4157 21.6525C73.0743 21.6525 71.9055 21.249 71.0456 20.4C70.2354 19.601 69.8674 18.6545 69.8674 17.567C69.8679 16.479 70.2523 15.516 71.0456 14.7325ZM46.6683 11.932C44.9996 11.932 43.5563 12.4545 42.4149 13.4805C41.1352 14.6305 40.5165 16.2155 40.5165 18.291V26.562H42.2184V21.224C42.7422 21.817 43.3972 22.277 44.1492 22.6085C44.9673 22.969 45.8178 23.1345 46.7339 23.1345C48.4687 23.1345 49.9249 22.591 51.1514 21.487C52.3789 20.382 52.9837 19.082 52.9837 17.533C52.9837 15.9515 52.4097 14.616 51.1842 13.546C49.9558 12.474 48.4687 11.932 46.6683 11.932ZM43.331 14.7325C44.2064 13.8675 45.2946 13.4145 46.6683 13.4145C47.9778 13.4145 49.0571 13.8105 49.9404 14.6005C50.8242 15.3915 51.2494 16.3795 51.2494 17.567C51.2494 18.687 50.8729 19.6255 50.1035 20.4C49.2694 21.24 48.1409 21.6525 46.7016 21.6525C45.3592 21.6525 44.1909 21.249 43.3305 20.4C42.5208 19.601 42.1528 18.6545 42.1528 17.567C42.1528 16.4795 42.5372 15.516 43.331 14.7325ZM65.4837 14.074C64.3224 12.6375 62.7025 11.932 60.5101 11.932C58.8738 11.932 57.4773 12.407 56.2563 13.3815C54.9582 14.4165 54.2937 15.7875 54.2937 17.5005C54.2937 18.456 54.5712 19.4015 55.1109 20.301C55.6192 21.148 56.3483 21.863 57.3693 22.377C58.3775 22.8845 59.4632 23.102 60.6409 23.102C61.7535 23.102 62.8069 22.8845 63.8156 22.377C64.8356 21.8635 65.5752 21.1535 66.0726 20.301L66.3998 19.741H64.5024C64.1092 20.3013 63.553 20.7627 62.8338 21.125C62.1317 21.4737 61.3589 21.6542 60.5758 21.6525C59.5289 21.6525 58.6376 21.3995 57.8597 20.861C57.067 20.312 56.5512 19.609 56.2239 18.686C58.0706 17.956 59.4329 18.043 61.3288 18.225L64.0767 18.4885C64.9232 18.57 65.6523 18.37 66.3018 18.1595C66.5684 18.0735 66.7077 17.919 66.7932 17.7635C66.8723 17.62 66.8743 17.4055 66.826 17.1375C66.6122 15.9545 66.1869 14.9445 65.4837 14.074ZM65.0584 16.842C64.0578 17.072 63.0566 16.8545 62.048 16.7765C60.9254 16.69 59.8044 16.5085 58.6779 16.545C57.7593 16.575 56.9108 16.7765 56.0926 17.0725C56.2234 15.8525 56.8004 14.879 57.7946 14.2055C58.6003 13.6595 59.5289 13.3815 60.5101 13.3815C62.0475 13.3815 63.2441 13.8595 64.1095 14.8645C64.5855 15.417 64.9073 16.1905 65.0584 16.842ZM88.8469 17.8625C88.3267 17.399 87.4653 17.0295 86.3601 16.677C85.5012 16.4025 84.8775 16.098 84.5274 15.852C84.1245 15.57 83.9713 15.2265 83.9713 14.864C83.9713 14.4355 84.1211 14.089 84.4956 13.81C84.8745 13.5275 85.4102 13.381 86.098 13.381C87.047 13.381 87.8263 13.579 88.4545 13.9655L88.6838 14.106L89.5004 12.756L89.2702 12.624C88.4794 12.1705 87.4722 11.932 86.3273 11.932C85.0834 11.932 84.0733 12.2335 83.3168 12.8215C82.9284 13.1235 82.6688 13.418 82.4659 13.8105C82.2769 14.176 82.1709 14.535 82.1709 14.963C82.1709 15.688 82.4982 16.2815 83.088 16.808C83.6436 17.303 84.4642 17.6895 85.5415 18.0275C86.4606 18.315 87.1002 18.5945 87.4722 18.9175C87.8229 19.222 87.9964 19.609 87.9964 20.0705C87.9964 20.5645 87.7502 20.983 87.2758 21.29C86.8316 21.577 86.1627 21.7185 85.345 21.7185C84.4612 21.7185 83.5794 21.485 82.6623 21.0585L82.4067 20.9395L81.6805 22.278L81.9426 22.41C82.9513 22.9155 84.0698 23.135 85.2799 23.135C86.5889 23.135 87.6587 22.856 88.5197 22.278C88.9354 21.999 89.2538 21.6615 89.4686 21.29C89.7113 20.87 89.7959 20.4 89.7959 19.922C89.7959 19.1145 89.4711 18.4195 88.8469 17.8625ZM93.5922 22.872V12.2285H91.8241L91.8574 22.872H93.5922ZM93.5255 10.7455C93.7309 10.523 93.8528 10.252 93.8528 9.9225C93.8528 9.56 93.7309 9.255 93.5255 9.0325C93.3047 8.7925 93.0028 8.6695 92.6746 8.6695C92.3483 8.6695 92.0782 8.793 91.8236 9.0325C91.5878 9.255 91.4968 9.56 91.4968 9.9225C91.4968 10.2525 91.5878 10.5235 91.8236 10.7455C92.0787 10.985 92.3483 11.075 92.6746 11.075C93.0028 11.075 93.3047 10.9855 93.5255 10.7455Z" fill="var(--fill-0, #A3A3A3)"/>
</g>
<defs>
<clipPath id="clip0_0_8">
<rect width="94" height="36" fill="white"/>
</clipPath>
</defs>
</svg>
