<svg viewBox="0 0 68 34" fill="none" xmlns="http://www.w3.org/2000/svg">
<g id="Frame" clip-path="url(#clip0_0_27)">
<path id="Vector" d="M11.5901 24.7684C10.8385 24.3921 9.95749 24.1928 8.96938 24.1928H4.01802V21.7342H12.8682V18.7422H0.291257V33.463H8.94832C9.96832 33.463 10.8601 33.2538 11.6009 32.8663C12.3423 32.4794 12.9326 31.9459 13.3623 31.2448C13.792 30.5437 14.0068 29.7383 14.0068 28.7968C14.0068 27.8653 13.792 27.0388 13.3629 26.3588C12.9326 25.6788 12.3531 25.1348 11.5901 24.7684ZM9.76432 30.1047C9.46343 30.3978 9.03437 30.5443 8.4645 30.5443H4.01862V27.0705H8.4657C8.83037 27.0705 9.14209 27.1437 9.39965 27.2797C9.66844 27.4153 9.87264 27.6141 10.0122 27.8759C10.1519 28.1268 10.2162 28.4516 10.2162 28.8173C10.2162 29.3824 10.0652 29.8116 9.76432 30.1047ZM21.299 18.7422L14.7578 33.463H18.6133L19.8488 30.5021H26.4863L27.7109 33.4624H31.7488L25.1979 18.7428L21.299 18.7422ZM21.0734 27.6144L23.2 22.5819L25.305 27.6144H21.0734ZM45.0244 24.371H37.8176V18.7422H33.9832V33.463H37.8176V27.4052H45.0244V33.463H48.8372V18.7422H45.0244V24.371ZM67.8159 33.463L60.3942 25.6161L67.5366 18.7422H62.9181L56.6458 25.051V18.7422H52.9082V33.463H56.6458V26.819L62.9181 33.463H67.8159ZM15.3168 0.712828H11.0846L7.92651 5.44176L4.57586 0.712828H0.172708L5.43519 7.84814L0.151646 15.4231H4.39412L7.616 10.5476L11.0202 15.4231H15.424L10.0754 8.04686L15.3168 0.712828ZM28.3662 1.43621C27.1416 0.820103 25.692 0.505897 24.016 0.505897C22.3407 0.505897 20.891 0.820103 19.6556 1.43738C18.4208 2.06462 17.4754 2.93338 16.8092 4.06359C16.1437 5.19321 15.8211 6.52214 15.8211 8.07031C15.8211 9.59797 16.1545 10.9269 16.8092 12.0671C17.4652 13.2078 18.4202 14.0866 19.6556 14.7038C20.891 15.3211 22.3407 15.6347 24.016 15.6347C25.6811 15.6347 27.1308 15.3211 28.3662 14.7038C29.6011 14.0766 30.5464 13.1973 31.2126 12.0671C31.8782 10.9374 32.2115 9.59797 32.2115 8.07031C32.2115 6.53269 31.8782 5.19321 31.2126 4.06359C30.5464 2.94393 29.6011 2.06462 28.3662 1.43738M27.8186 10.5717C27.4961 11.2622 27.0237 11.7646 26.3792 12.1204C25.7347 12.4762 24.9506 12.6539 24.016 12.6539C23.0815 12.6539 22.298 12.4757 21.6752 12.1204C21.0523 11.7652 20.5793 11.2622 20.2466 10.5717C19.9138 9.8811 19.7525 9.0651 19.7525 8.08145C19.7525 7.10835 19.9132 6.27183 20.2459 5.59124C20.5685 4.91124 21.0415 4.3989 21.6752 4.04307C22.3088 3.68724 23.0821 3.50962 24.016 3.50962C24.95 3.50962 25.7455 3.68724 26.3792 4.05362C27.0231 4.40945 27.4961 4.92179 27.8186 5.60179C28.1412 6.28179 28.3018 7.09838 28.3018 8.08145C28.2802 9.05455 28.1406 9.8811 27.8186 10.5717ZM40.3637 7.72269L36.6905 0.712828H32.3728L38.3015 11.458L36.229 15.4231H40.3529L48.0002 0.712828H43.919L40.3637 7.72269ZM63.7022 0.712828L58.8796 9.42797L53.9709 0.712828H49.7826V15.4231H53.2512V5.89138L57.1718 12.818H60.5013L64.3358 5.83921V15.4237H67.8153V0.712241L63.7022 0.712828Z" fill="var(--fill-0, #A3A3A3)"/>
</g>
<defs>
<clipPath id="clip0_0_27">
<rect width="68" height="34" fill="white"/>
</clipPath>
</defs>
</svg>
