<svg viewBox="0 0 133 34" fill="none" xmlns="http://www.w3.org/2000/svg">
<g id="Frame" clip-path="url(#clip0_0_36)">
<path id="Vector" d="M16.05 11.314C16.359 11.38 16.681 11.34 16.964 11.201C17.1673 11.1217 17.3773 11.073 17.594 11.055C17.5808 10.986 17.554 10.9204 17.5152 10.8618C17.4764 10.8033 17.4264 10.753 17.368 10.714C17.1992 10.6073 16.9951 10.5714 16.8 10.614C16.3884 10.7187 15.9646 10.7671 15.54 10.758C15.644 10.994 15.824 11.188 16.05 11.314ZM17.054 12.353C17.424 12.303 17.777 12.163 18.081 11.947L18.146 11.907C18.068 11.857 17.9973 11.7977 17.934 11.729C17.657 11.388 17.14 11.572 17.133 11.572L16.345 11.797C16.377 11.8837 16.418 11.9667 16.468 12.046C16.53 12.1442 16.6169 12.2243 16.7198 12.2782C16.8227 12.3321 16.9379 12.3579 17.054 12.353ZM19.204 17.517C19.2155 17.5185 19.2272 17.517 19.238 17.5128C19.2489 17.5086 19.2585 17.5018 19.266 17.493C19.502 17.173 19.293 15.42 19.149 14.51C18.9754 14.4575 18.8042 14.3971 18.636 14.329C18.5925 14.311 18.5461 14.3009 18.499 14.299C18.4664 14.297 18.4339 14.305 18.406 14.322C18.3897 14.3381 18.378 14.3583 18.372 14.3804C18.3661 14.4026 18.3661 14.4259 18.372 14.448C18.423 14.943 18.592 15.958 18.67 16.272C18.93 17.35 19.129 17.5 19.204 17.517ZM7.85 9.807C9.5531 9.90133 11.2614 9.80169 12.942 9.51C13.3303 9.43012 13.7256 9.38892 14.122 9.387C13.972 8.682 13.178 8.774 13.144 8.777C7.75 9.207 4.634 8.46 3.785 7.843C3.76467 7.96928 3.7706 8.0984 3.80243 8.22229C3.83426 8.34617 3.89131 8.46216 3.97 8.563C4.316 9.036 5.271 9.636 7.85 9.807ZM18.953 12.529L19.066 12.382L18.912 12.28C18.8226 12.2196 18.7155 12.1911 18.6079 12.1991C18.5003 12.2071 18.3985 12.2511 18.319 12.324C18.029 12.549 17.691 12.704 17.329 12.774C17.389 12.884 17.472 12.98 17.573 13.054C18.21 13.524 18.641 12.954 18.953 12.529ZM18.315 17.027C18.2154 16.7174 18.1389 16.4009 18.086 16.08C17.936 15.4228 17.8978 14.7449 17.973 14.075V14.037C17.86 13.874 17.545 13.495 17.326 13.495H17.309C17.237 13.495 17.179 13.557 17.137 13.662C17.031 13.912 16.727 15.708 17.517 16.666C17.6107 16.7864 17.7324 16.8822 17.8714 16.9451C18.0104 17.008 18.1627 17.0361 18.315 17.027ZM10.251 11.207C11.3707 11.1698 12.4781 10.9617 13.535 10.59C13.871 10.45 14.229 10.372 14.593 10.358C14.5648 10.2203 14.485 10.0987 14.37 10.018C14.2459 9.95055 14.1092 9.90934 13.9685 9.89696C13.8278 9.88457 13.686 9.90126 13.552 9.946C11.8262 10.3718 10.0469 10.5396 8.272 10.444C8.2853 10.5594 8.33833 10.6665 8.422 10.747C8.58 10.887 9.048 11.252 10.251 11.207ZM11.76 12.416C12.5016 12.3017 13.2169 12.0558 13.872 11.69C14.2767 11.4452 14.7279 11.2875 15.197 11.227C15.1225 11.0703 14.991 10.9478 14.8294 10.8844C14.6678 10.8211 14.4882 10.8217 14.327 10.886C13.009 11.326 11.201 11.833 10.057 11.762C10.0354 11.803 10.0256 11.8493 10.0288 11.8956C10.032 11.9418 10.048 11.9863 10.075 12.024C10.245 12.29 10.838 12.536 11.759 12.416M1.007 0.794C0.827 1.015 0.708 1.28 0.664 1.561C0.613 2.021 0.684 2.727 1.448 3.546C2.40211 4.53065 3.56213 5.29216 4.845 5.776C6.79121 6.50663 8.85858 6.86058 10.937 6.819C11.704 6.819 12.533 6.785 13.396 6.713C13.262 6.533 12.741 5.973 11.382 5.878C2.777 5.28 1.274 1.923 1.007 0.794ZM15.96 12.314C15.91 12.1433 15.8084 11.9924 15.669 11.8819C15.5297 11.7714 15.3596 11.7068 15.182 11.697C15.0976 11.6977 15.0136 11.7092 14.932 11.731C14.932 11.731 13.617 11.963 13.124 13.021C13.0503 13.2112 13.0263 13.4171 13.0543 13.6192C13.0823 13.8213 13.1613 14.013 13.284 14.176C13.4486 14.4034 13.6711 14.5826 13.9284 14.6948C14.1857 14.807 14.4684 14.8482 14.747 14.814C14.751 14.405 14.847 14.004 15.027 13.637C15.249 13.14 15.566 12.691 15.959 12.314M36.712 14.176C36.8341 14.0125 36.9129 13.8208 36.9411 13.6187C36.9692 13.4166 36.9458 13.2106 36.873 13.02C36.38 11.963 35.083 11.734 35.069 11.73C34.8552 11.6714 34.627 11.7 34.4343 11.8094C34.2415 11.9189 34.1001 12.1004 34.041 12.314C34.435 12.69 34.751 13.139 34.969 13.637C35.152 14.007 35.248 14.412 35.25 14.823C35.529 14.8528 35.811 14.8088 36.0676 14.6952C36.3242 14.5816 36.5464 14.4026 36.712 14.176ZM40.492 7.304C39.1369 7.40837 37.7751 7.38694 36.424 7.24H36.281C36.0507 7.21033 35.8166 7.24195 35.6024 7.33167C35.3882 7.42139 35.2014 7.56603 35.061 7.751L35.521 7.853C36.815 8.143 38.979 8.631 43.317 8.041C44.8266 7.80841 46.2748 7.27741 47.577 6.479C48.604 5.729 48.865 5.047 48.909 4.604C48.935 4.405 48.909 4.204 48.834 4.018C47.307 5.896 44.495 7 40.492 7.304Z" fill="var(--fill-0, #A3A3A3)"/>
<path id="Vector_2" d="M10.47 3.543C10.1641 3.47653 9.85547 3.42315 9.545 3.383C7.518 3.068 3.354 2.444 1.714 0C1.62333 0.185777 1.57621 0.389778 1.57621 0.5965C1.57621 0.803222 1.62333 1.00722 1.714 1.193C2.21 2.39 4.11 3.921 6.819 4.576C8.342 4.951 9.894 5.2 11.459 5.319C11.854 5.353 12.242 5.441 12.613 5.581C12.4868 5.07304 12.2183 4.61164 11.839 4.251C11.4586 3.89008 10.9835 3.64456 10.469 3.543M20.178 12.956L19.894 12.793C19.7908 12.7533 19.6783 12.7451 19.5704 12.7693C19.4626 12.7935 19.3643 12.8491 19.288 12.929C19.0873 13.1823 18.859 13.4097 18.603 13.611C18.6245 13.6713 18.6626 13.7244 18.713 13.764C18.858 13.895 19.045 13.971 19.24 13.979C19.682 13.904 20.083 13.117 20.178 12.956ZM20.406 14.292C20.5006 14.297 20.595 14.2788 20.681 14.2388C20.7669 14.1989 20.8418 14.1385 20.899 14.063C20.9512 14.0057 20.9911 13.9384 21.0164 13.8651C21.0417 13.7919 21.0517 13.7143 21.046 13.637C21.0421 13.5979 21.03 13.5601 21.0106 13.526C20.9911 13.4919 20.9647 13.4622 20.933 13.439C20.8181 13.3669 20.6796 13.3425 20.547 13.371C20.5051 13.3783 20.4654 13.3954 20.4314 13.421C20.3973 13.4465 20.3698 13.4798 20.351 13.518C20.231 13.746 20.054 13.939 19.838 14.08C19.9107 14.1557 19.9995 14.214 20.0979 14.2507C20.1962 14.2874 20.3015 14.3015 20.406 14.292ZM15.218 10.228C15.539 10.292 15.87 10.292 16.191 10.228C16.41 10.201 16.622 10.178 16.793 10.171C16.921 10.1703 17.0477 10.178 17.173 10.194H17.256C17.122 9.614 16.715 9.598 16.666 9.598H16.211C15.7549 9.62932 15.2971 9.62932 14.841 9.598C14.899 9.841 15.031 10.062 15.218 10.228ZM6.68 8.026C11.018 8.616 13.186 8.129 14.477 7.839L14.936 7.736C14.7973 7.5501 14.6114 7.40468 14.3976 7.31483C14.1838 7.22497 13.9498 7.19396 13.72 7.225H13.573C12.2219 7.37227 10.8601 7.39403 9.505 7.29C5.502 6.986 2.69 5.882 1.15 4.01C1.07451 4.1955 1.04832 4.39738 1.074 4.596C1.119 5.039 1.386 5.721 2.41 6.471C3.71455 7.27064 5.16673 7.79948 6.68 8.026ZM16.611 16.221C16.5207 15.8021 16.4771 15.3745 16.481 14.946C16.4724 14.3521 16.6137 13.7657 16.892 13.241V13.214C16.7258 13.0458 16.5097 12.9357 16.276 12.9C16.1899 12.8991 16.1066 12.9309 16.043 12.989C16.043 12.989 14.858 14.063 15.509 15.461C15.6248 15.6615 15.7837 15.8338 15.9743 15.9652C16.1649 16.0967 16.3824 16.184 16.611 16.221ZM30.802 17.517C30.874 17.517 31.072 17.35 31.333 16.273C31.412 15.959 31.58 14.943 31.631 14.448C31.6369 14.4259 31.6369 14.4026 31.631 14.3804C31.625 14.3583 31.6133 14.3381 31.597 14.322C31.561 14.3051 31.5218 14.2963 31.482 14.2963C31.4422 14.2963 31.403 14.3051 31.367 14.322C31.1984 14.389 31.0273 14.4493 30.854 14.503C30.71 15.413 30.511 17.166 30.737 17.486C30.744 17.4966 30.7538 17.505 30.7652 17.5105C30.7767 17.516 30.7894 17.5182 30.802 17.517ZM19.874 17C19.874 17.382 19.874 17.682 20.024 17.716C20.316 17.682 20.391 16.318 20.367 15.626C20.3715 15.3347 20.3406 15.0439 20.275 14.76H20.169C20.066 14.743 19.922 14.72 19.771 14.682H19.754C19.7394 14.6809 19.7248 14.6831 19.7112 14.6882C19.6975 14.6934 19.6852 14.7015 19.675 14.712C19.6568 14.7327 19.6439 14.7576 19.6375 14.7844C19.631 14.8113 19.6312 14.8393 19.638 14.866C19.693 15.206 19.775 15.718 19.836 16.26C19.867 16.516 19.871 16.775 19.874 17ZM29.97 17.73C30.113 17.696 30.117 17.39 30.12 17.014C30.12 16.789 30.12 16.53 30.158 16.257C30.219 15.715 30.301 15.2 30.356 14.863C30.3637 14.8363 30.3644 14.8081 30.3579 14.7811C30.3514 14.7541 30.338 14.7293 30.319 14.709C30.3065 14.6967 30.2913 14.6876 30.2746 14.6824C30.2579 14.6772 30.2402 14.676 30.223 14.679C30.073 14.716 29.928 14.739 29.826 14.757H29.719C29.6534 15.0409 29.6225 15.3317 29.627 15.623C29.603 16.319 29.679 17.683 29.97 17.73ZM49.308 1.561C49.264 1.27934 49.1456 1.01455 48.965 0.794C48.705 1.923 47.202 5.281 38.614 5.871C37.244 5.966 36.734 6.525 36.604 6.706C37.464 6.778 38.292 6.812 39.063 6.812C41.133 6.858 43.193 6.512 45.133 5.789C46.4148 5.30477 47.5738 4.54328 48.527 3.559C49.307 2.727 49.381 2.021 49.308 1.561ZM28.792 17.59C28.834 17.6279 28.8849 17.6547 28.9399 17.6679C28.9949 17.6812 29.0523 17.6805 29.107 17.666C29.292 17.584 29.261 17.325 29.234 17.14V17.096C29.134 16.386 29.134 15.666 29.234 14.955C29.261 14.791 29.182 14.733 29.055 14.658C28.8426 14.5367 28.6792 14.345 28.593 14.116C28.378 14.3982 28.2225 14.7212 28.136 15.0654C28.0496 15.4095 28.0339 15.7676 28.09 16.118C28.143 16.675 28.392 17.196 28.792 17.59ZM46.023 8.562C46.1015 8.46108 46.1584 8.34506 46.19 8.22118C46.2217 8.09729 46.2275 7.96821 46.207 7.842C45.358 8.46 42.242 9.207 36.856 8.777C36.822 8.777 36.027 8.678 35.876 9.387H35.99C36.3487 9.407 36.7047 9.45033 37.058 9.517C38.738 9.81 40.447 9.91 42.15 9.814C44.721 9.636 45.677 9.036 46.023 8.562ZM36.435 9.933C36.3013 9.88855 36.1599 9.87201 36.0195 9.88439C35.8792 9.89677 35.7429 9.93782 35.619 10.005C35.5043 10.0859 35.4249 10.2075 35.397 10.345H35.479C35.813 10.381 36.142 10.46 36.455 10.581C37.511 10.953 38.619 11.161 39.739 11.198H39.883C40.989 11.198 41.427 10.858 41.567 10.721C41.6512 10.6404 41.7047 10.5328 41.718 10.417C39.9425 10.5161 38.162 10.353 36.434 9.933M38.235 12.417C39.155 12.537 39.755 12.291 39.923 12.018C39.9472 11.9786 39.9601 11.9333 39.9601 11.887C39.9601 11.8407 39.9472 11.7954 39.923 11.756C38.779 11.827 36.971 11.319 35.653 10.88C35.4921 10.8182 35.3139 10.8188 35.1535 10.8817C34.993 10.9446 34.8619 11.0653 34.786 11.22C35.254 11.282 35.705 11.44 36.108 11.684C36.767 12.054 37.488 12.303 38.235 12.417ZM34.474 15.452C35.124 14.054 33.953 12.99 33.943 12.98C33.645 12.718 33.189 13.113 33.09 13.205V13.232C33.368 13.758 33.51 14.344 33.501 14.937C33.505 15.366 33.461 15.794 33.371 16.212C33.5998 16.1757 33.8176 16.0886 34.0083 15.9571C34.199 15.8256 34.3588 15.653 34.474 15.452ZM32.47 16.665C33.261 15.707 32.956 13.91 32.85 13.661C32.8087 13.5557 32.752 13.5 32.68 13.494C32.46 13.474 32.131 13.869 32.015 14.036V14.074C32.0911 14.7434 32.0539 15.4209 31.905 16.078C31.8495 16.399 31.7716 16.7158 31.672 17.026C31.8243 17.0351 31.9766 17.007 32.1156 16.9441C32.2546 16.8812 32.3763 16.7854 32.47 16.665ZM29.586 14.292C29.6883 14.2997 29.7911 14.2847 29.887 14.2483C29.9829 14.2118 30.0696 14.1547 30.141 14.081C29.931 13.941 29.759 13.751 29.641 13.528C29.6222 13.4901 29.5948 13.4571 29.5609 13.4318C29.527 13.4064 29.4877 13.3894 29.446 13.382C29.313 13.3553 29.1749 13.3795 29.059 13.45C29.0273 13.4732 29.0009 13.5029 28.9814 13.537C28.962 13.5711 28.9499 13.6089 28.946 13.648C28.9403 13.7229 28.9494 13.7983 28.9729 13.8697C28.9965 13.9411 29.0339 14.0071 29.083 14.064C29.1413 14.1408 29.2178 14.2019 29.3056 14.2417C29.3934 14.2815 29.4898 14.2988 29.586 14.292Z" fill="var(--fill-0, #A3A3A3)"/>
<path id="Vector_3" d="M40.454 3.382C40.044 3.444 39.714 3.495 39.53 3.542C39.013 3.642 38.537 3.889 38.157 4.252C37.778 4.615 37.511 5.079 37.39 5.588C37.759 5.448 38.146 5.36 38.54 5.326C40.1022 5.20622 41.6518 4.95737 43.173 4.582C45.861 3.935 47.783 2.387 48.279 1.193C48.3697 1.00722 48.4168 0.803222 48.4168 0.5965C48.4168 0.389778 48.3697 0.185777 48.279 0C46.645 2.445 42.471 3.069 40.454 3.382ZM20.89 17.666C20.9445 17.6805 21.0017 17.6812 21.0565 17.6681C21.1113 17.6551 21.162 17.6285 21.204 17.591C21.608 17.198 21.861 16.677 21.917 16.118C21.9747 15.7678 21.9601 15.4096 21.8741 15.0653C21.7881 14.721 21.6326 14.3979 21.417 14.116C21.329 14.346 21.164 14.538 20.951 14.662C20.824 14.74 20.745 14.795 20.773 14.958C20.875 15.668 20.875 16.39 20.773 17.1V17.147C20.735 17.338 20.705 17.584 20.89 17.666ZM33.954 11.314C34.179 11.184 34.354 10.984 34.454 10.744C34.0294 10.7547 33.6054 10.7066 33.194 10.601C32.9999 10.5581 32.7966 10.5941 32.629 10.701C32.5696 10.7391 32.5186 10.7889 32.479 10.8473C32.4395 10.9058 32.4123 10.9717 32.399 11.041C32.617 11.0597 32.827 11.1087 33.029 11.188C33.314 11.333 33.641 11.378 33.954 11.314ZM32.944 12.353C33.0622 12.3588 33.1798 12.3327 33.2845 12.2775C33.3892 12.2223 33.4771 12.1399 33.539 12.039C33.5903 11.961 33.6317 11.878 33.663 11.79L32.875 11.565C32.875 11.565 32.351 11.391 32.074 11.722C32.0119 11.7905 31.9405 11.8501 31.862 11.899L31.93 11.94C32.23 12.157 32.577 12.299 32.944 12.353ZM32.43 13.055C32.5318 12.982 32.615 12.8861 32.673 12.775C32.313 12.704 31.974 12.55 31.683 12.325C31.6044 12.2513 31.5032 12.2061 31.3958 12.1969C31.2885 12.1876 31.1811 12.2148 31.091 12.274L30.937 12.376L31.05 12.523C31.362 12.956 31.793 13.522 32.43 13.055ZM30.776 13.954C30.9717 13.9476 31.1586 13.8713 31.303 13.739C31.3533 13.6994 31.3915 13.6463 31.413 13.586C31.1592 13.3858 30.9293 13.1569 30.728 12.904C30.6522 12.8233 30.554 12.7672 30.446 12.7428C30.338 12.7183 30.2252 12.7268 30.122 12.767L29.837 12.931C29.909 13.115 30.31 13.903 30.776 13.954ZM33.806 10.228C34.127 10.292 34.458 10.292 34.779 10.228C34.969 10.065 35.104 9.848 35.166 9.604C34.7099 9.63532 34.2521 9.63532 33.796 9.604H33.334C33.286 9.604 32.878 9.622 32.744 10.201C32.7716 10.2039 32.7994 10.2039 32.827 10.201C32.9403 10.1857 33.0547 10.1777 33.17 10.177H33.197C33.375 10.177 33.586 10.201 33.806 10.228Z" fill="var(--fill-0, #A3A3A3)"/>
<path id="Vector_4" d="M36.85 2.598C36.166 3.338 33.998 4.054 32.303 4.442C32.029 4.507 31.745 4.568 31.461 4.63C30.7263 4.772 30.0013 4.95367 29.286 5.175C28.7897 5.31204 28.3245 5.54361 27.916 5.857C27.7252 6.00834 27.6023 6.22914 27.574 6.471C27.424 7.535 28.804 8.568 29.464 9.066C29.612 9.174 29.7137 9.25333 29.769 9.304C29.964 9.476 30.125 9.681 30.245 9.911C30.2502 9.9267 30.2593 9.94085 30.2713 9.95219C30.2834 9.96354 30.298 9.97172 30.314 9.976C30.351 9.976 30.416 9.976 30.522 9.866L32.669 7.545L32.499 7.852C32.2 8.391 31.7 9.192 31.296 9.836C31.118 10.123 30.954 10.378 30.848 10.559C30.828 10.559 28.742 11.189 28.488 11.292C28.168 11.376 27.891 11.579 27.715 11.858V11.885H27.684C27.2103 11.8382 26.7418 11.7491 26.284 11.619L26.013 11.551C25.8683 11.5177 25.7907 11.346 25.78 11.036L25.855 10.528L26.064 10.328L26.328 9.728C26.304 9.679 26.184 9.662 26.126 9.666H26.078V9.615C26.078 9.615 26.115 9.25 26.118 8.855L25.961 8.725C25.8381 8.60145 25.6919 8.50346 25.5309 8.43669C25.3699 8.36993 25.1973 8.3357 25.023 8.336H24.975C24.8185 8.32503 24.6615 8.34996 24.5161 8.40888C24.3707 8.46781 24.2407 8.55917 24.136 8.676C24.076 8.736 24.0053 8.79867 23.924 8.864V9.655H23.876C23.821 9.655 23.695 9.655 23.67 9.717L23.948 10.324L24.157 10.524L24.232 11.026C24.232 11.343 24.143 11.514 23.999 11.548L23.729 11.616C23.2697 11.7473 22.803 11.836 22.329 11.882H22.284V11.838C22.284 11.838 22.26 11.66 21.808 11.411C21.421 11.197 19.219 10.593 19.198 10.586L19.154 10.569C19.0067 10.3266 18.857 10.0855 18.705 9.846C18.301 9.202 17.801 8.401 17.503 7.862L17.333 7.555L19.496 9.887C19.578 9.969 19.65 10.007 19.702 9.997C19.7175 9.99286 19.7317 9.98508 19.7436 9.97429C19.7554 9.9635 19.7645 9.95002 19.77 9.935C19.891 9.705 20.052 9.498 20.246 9.325C20.302 9.27433 20.4037 9.19467 20.551 9.086C21.209 8.578 22.578 7.545 22.438 6.478C22.4095 6.23598 22.2861 6.01516 22.095 5.864C21.6865 5.55061 21.2213 5.31904 20.725 5.182C20.0096 4.96166 19.2829 4.77973 18.548 4.637C18.2667 4.57703 17.9861 4.51436 17.706 4.449C16.011 4.06 13.829 3.344 13.162 2.604C12.634 3.504 12.962 4.688 13.124 5.036C13.474 5.764 14.021 6.381 14.702 6.819C15.23 7.207 15.689 7.542 15.802 8.183V8.237H15.743C15.356 8.243 14.971 8.307 14.603 8.428C14.4907 8.462 14.3765 8.48938 14.261 8.51C14.2579 8.56175 14.2682 8.61343 14.291 8.66C14.3456 8.77784 14.4245 8.88278 14.5226 8.96793C14.6207 9.05307 14.7357 9.11649 14.86 9.154C15.283 9.221 15.713 9.238 16.14 9.205C16.3993 9.197 16.654 9.22567 16.904 9.291C16.8162 8.81668 16.702 8.34763 16.562 7.886C16.4255 7.52998 16.2422 7.1937 16.017 6.886C15.8943 6.73431 15.8005 6.56146 15.74 6.376C15.7408 6.29609 15.7576 6.21716 15.7894 6.14383C15.8212 6.07051 15.8673 6.00427 15.925 5.949C15.9334 5.93914 15.9435 5.93099 15.955 5.925L16.025 5.895V5.97C16.0052 6.09464 16.0215 6.22235 16.072 6.338C16.1647 6.49467 16.2697 6.64233 16.387 6.781C16.729 7.339 17.011 7.92567 17.233 8.541C17.551 9.424 17.918 10.321 18.13 10.856L18.243 11.128C18.29 11.2444 18.3586 11.3509 18.445 11.442C19.248 11.946 20.093 12.382 20.969 12.745L22.339 14.375L22.869 15.925L23.845 16.393V16.58L23.263 16.533C23.273 17.1074 23.1753 17.6786 22.975 18.217C22.698 18.997 22.475 19.618 23.78 26.209C23.839 26.489 23.814 26.781 23.708 27.048C23.671 27.178 23.626 27.324 23.588 27.512C23.472 28.088 23.869 29.728 24.133 30.809C24.243 31.1983 24.3263 31.5937 24.383 31.995C24.361 32.2318 24.297 32.4627 24.194 32.677C24.1403 32.7841 24.1045 32.8993 24.088 33.018C24.067 33.249 24.097 33.482 24.178 33.7C24.229 33.7849 24.3005 33.8555 24.3859 33.9055C24.4714 33.9555 24.568 33.9832 24.667 33.986C24.723 33.781 24.737 33.566 24.708 33.356V32.646C24.728 31.784 24.808 24.088 24.828 21.453C24.763 21.371 24.396 20.91 24.355 20.849L24.307 20.798L24.554 20.733L25.167 21.098V21.139C25.167 23.686 25.283 31.753 25.304 32.66V33.37C25.2782 33.5804 25.2897 33.7936 25.338 34C25.4344 33.9878 25.5274 33.9565 25.6115 33.9079C25.6957 33.8593 25.7693 33.7944 25.828 33.717C25.909 33.499 25.94 33.267 25.917 33.035C25.9004 32.9167 25.8646 32.8018 25.811 32.695C25.7078 32.4804 25.6438 32.2491 25.622 32.012C25.6773 31.612 25.7607 31.2177 25.872 30.829C26.136 29.745 26.533 28.101 26.417 27.529C26.3844 27.3725 26.3444 27.2177 26.297 27.065C26.1911 26.7985 26.1661 26.5067 26.225 26.226C27.533 19.618 27.31 18.998 27.03 18.217C26.8307 17.6784 26.734 17.1072 26.745 16.533L26.108 16.591V16.403L27.084 15.936L27.622 14.371L28.992 12.745C29.868 12.381 30.712 11.945 31.515 11.442C31.6035 11.3526 31.6724 11.2456 31.717 11.128C31.748 11.06 31.783 10.968 31.827 10.863C32.047 10.327 32.409 9.427 32.727 8.541C32.9415 7.9572 33.216 7.3972 33.546 6.87L33.615 6.778C33.717 6.641 33.827 6.498 33.936 6.324C33.9837 6.20964 33.9922 6.08267 33.96 5.963V5.87L34.04 5.918C34.1081 5.95076 34.1645 6.00358 34.2017 6.06937C34.2389 6.13516 34.2551 6.21076 34.248 6.286C34.1873 6.47933 34.095 6.65667 33.971 6.818C33.742 7.13391 33.5542 7.47767 33.412 7.841C33.272 8.30233 33.158 8.77033 33.07 9.245C33.3207 9.18033 33.5753 9.152 33.834 9.16C34.261 9.193 34.691 9.176 35.114 9.109C35.2381 9.07092 35.3528 9.00729 35.4508 8.92221C35.5488 8.83713 35.6279 8.73248 35.683 8.615C35.7058 8.56843 35.7161 8.51675 35.713 8.465C35.635 8.465 35.518 8.42 35.371 8.383C34.9985 8.26784 34.6109 8.20919 34.221 8.209H34.162V8.154C34.275 7.527 34.734 7.193 35.262 6.79C35.9502 6.35698 36.504 5.74054 36.861 5.01C37.015 4.745 37.381 3.514 36.851 2.597M15.14 4.326C15.041 4.166 15.024 4.091 15.08 4.043C15.0979 4.02583 15.1217 4.01624 15.1465 4.01624C15.1713 4.01624 15.1951 4.02583 15.213 4.043C16.003 4.701 17.463 5.015 18.746 5.291C19.13 5.376 19.493 5.451 19.826 5.537C20.274 5.644 20.702 5.824 21.092 6.069C21.2224 6.14287 21.3325 6.24779 21.4125 6.37444C21.4926 6.50109 21.5402 6.64555 21.551 6.795C21.5313 6.99821 21.4639 7.19391 21.3545 7.36625C21.245 7.53859 21.0965 7.68273 20.921 7.787C20.568 8.01781 20.2625 8.31416 20.021 8.66C20.0111 8.67679 19.9969 8.69064 19.9798 8.70013C19.9628 8.70962 19.9435 8.71441 19.924 8.714H19.887C19.8595 8.7029 19.8369 8.68248 19.823 8.65633C19.8091 8.63018 19.8048 8.59997 19.811 8.571C19.8809 8.24198 20.0669 7.94912 20.335 7.746C21.175 7.003 21.051 6.795 20.917 6.57C20.6808 6.327 20.3838 6.1516 20.057 6.062C19.609 5.915 19.031 5.782 18.428 5.642C17.01 5.308 15.547 4.974 15.14 4.326ZM27.538 12.85C27.195 13.017 27.151 13.133 27.151 13.358C27.151 14.381 26.671 14.975 25.832 14.981H25.271V17.515C25.3276 17.5293 25.3801 17.5567 25.424 17.5951C25.468 17.6335 25.5023 17.6818 25.524 17.736L25.541 17.801H25.476C25.3261 17.7719 25.1737 17.7572 25.021 17.757L24.976 17.729V17.77C24.8227 17.77 24.671 17.785 24.521 17.815H24.456V17.75C24.4753 17.6942 24.5087 17.6444 24.5531 17.6055C24.5975 17.5666 24.6512 17.5399 24.709 17.528V15.002H24.179C23.339 15.002 22.856 14.405 22.859 13.379C22.859 13.154 22.826 13.038 22.473 12.871L22.315 12.799L22.658 12.782C23.0767 12.8127 23.314 12.9967 23.37 13.334C23.37 13.382 23.3767 13.4333 23.39 13.488C23.452 13.921 23.52 14.412 24.236 14.418H24.733V13.024C24.6865 13.0026 24.6455 12.971 24.6129 12.9315C24.5804 12.892 24.5572 12.8457 24.545 12.796V12.727L24.61 12.745C24.7213 12.7757 24.8353 12.7913 24.952 12.792H25.052C25.1673 12.792 25.2813 12.7763 25.394 12.745L25.462 12.727V12.796C25.4498 12.8457 25.4266 12.892 25.3941 12.9315C25.3615 12.971 25.3205 13.0026 25.274 13.024V14.419H25.771C26.486 14.419 26.555 13.921 26.616 13.488C26.616 13.4333 26.6227 13.382 26.636 13.334C26.692 12.994 26.931 12.813 27.346 12.782L27.688 12.799L27.538 12.85ZM34.848 4.326C34.441 4.974 32.978 5.308 31.561 5.636C30.955 5.776 30.38 5.908 29.931 6.055C29.6092 6.14687 29.3173 6.32211 29.085 6.563C28.952 6.788 28.825 6.996 29.667 7.739C29.935 7.944 30.121 8.236 30.191 8.564C30.1967 8.59295 30.1924 8.62298 30.1787 8.64915C30.1651 8.67532 30.143 8.69607 30.116 8.708H30.075C30.0558 8.70721 30.037 8.7018 30.0203 8.69222C30.0036 8.68265 29.9894 8.6692 29.979 8.653C29.7386 8.31024 29.4352 8.01635 29.085 7.787C28.9107 7.68168 28.7634 7.53718 28.6548 7.36498C28.5461 7.19278 28.4791 6.99763 28.459 6.795C28.4692 6.64704 28.5158 6.50388 28.5946 6.37827C28.6735 6.25266 28.7822 6.14848 28.911 6.075C29.3022 5.82936 29.7313 5.64995 30.181 5.544C30.523 5.458 30.866 5.384 31.256 5.298C32.544 5.022 33.996 4.708 34.79 4.05C34.8029 4.03632 34.8198 4.02703 34.8383 4.02344C34.8568 4.01985 34.8759 4.02215 34.893 4.03C34.9041 4.03479 34.9143 4.04157 34.923 4.05C34.965 4.091 34.948 4.166 34.848 4.326ZM55.453 28.341V8.385H62.668C64.864 8.385 66.5293 8.818 67.664 9.684C68.798 10.5507 69.3687 11.7713 69.376 13.346C69.376 15.76 68.1067 17.2987 65.568 17.962C67.153 18.232 68.358 18.794 69.191 19.667C69.6106 20.1207 69.9367 20.6526 70.1505 21.2324C70.3643 21.8122 70.4616 22.4285 70.437 23.046C70.437 24.7367 69.8207 26.0427 68.588 26.964C67.3553 27.884 65.602 28.343 63.328 28.341H55.453ZM65.603 16.407C66.375 15.725 66.7607 14.765 66.76 13.527C66.76 12.289 66.376 11.327 65.602 10.632C64.828 9.936 63.716 9.609 62.267 9.609H58.014V17.451H62.281C63.7277 17.4323 64.8393 17.081 65.616 16.397L65.603 16.407ZM67.78 22.896C67.78 21.532 67.3553 20.4773 66.506 19.732C65.6573 18.9867 64.46 18.616 62.914 18.62H58.018V27.144H62.914C64.4567 27.144 65.654 26.7737 66.506 26.033C67.358 25.2917 67.7827 24.246 67.78 22.896ZM75.189 28.341V8.385H87.931V9.868L87.701 10.096C86.765 9.73 85.191 9.547 82.979 9.547H77.74V17.563H86.126L86.301 17.765V18.753H77.74V27.172H83.263C84.1527 27.1761 85.0419 27.1327 85.927 27.042C86.4684 27.0005 87.0049 26.9102 87.53 26.772L87.982 26.63L88.212 26.858V28.341H75.189ZM95.15 28.341H93.002V8.385H95.55V25.232L107.747 8.385H109.901V28.34H107.323V11.49L95.15 28.341ZM130.073 28.341V9.588H118.307V28.341H115.759V8.385H132.651V28.34L130.073 28.341Z" fill="var(--fill-0, #A3A3A3)"/>
</g>
<defs>
<clipPath id="clip0_0_36">
<rect width="133" height="34" fill="white"/>
</clipPath>
</defs>
</svg>
